<?xml version="1.0" encoding="UTF-8"?>
<svg width="933.33" height="1200" version="1.1" viewBox="0 0 933.33 1200" xmlns="http://www.w3.org/2000/svg">
 <path d="m53.84 1197.6c12.677-89.586 17.568-104.01 21.551-151.28 0.53588-6.3597-6.2858-15.899-7.1838-17.748-2.0642-4.2498 3.9088-48.279 3.9088-48.279s-4.4555-10.784-3.4862-14.262c3.5919-12.888 8.5298-16.439 12.255-22.819 3.094-5.2995 5.1396-11.435 2.6411-18.171-2.4298-6.5499-6.4442-9.2966-7.2894-12.677-2.2434-8.9735-0.42059-19.31 2.5354-28.312 3.1352-9.5478 8.8116-18.399 15.635-25.777 3.7691-4.0751 10.576-5.0146 13.522-9.7192 3.9454-6.3001 1.8256-14.808 3.8032-21.974 2.0878-7.5649 6.614-14.344 8.4515-21.974 2.819-11.705 4.8605-22.234 2.958-34.123-0.48815-3.0504-1.3446-7.0793-2.958-10.247-1.4576-2.8623-5.1471-4.4877-5.916-7.6063-1.336-5.419 2.958-16.48 2.958-16.48s5.3896-8.3375 5.916-13.1c0.45829-4.1461-1.5126-8.2106-2.5354-12.255-0.72122-2.8514-2.6786-4.3484-2.6411-7.2894 0.23613-18.529 6.4376-28.881 12.783-46.694 2.0802-5.8399 13.259-18.661 10.142-27.15-6.0341-16.435-12.443-30.323-13.522-46.483-0.9374-14.033-1.8789-30.624 6.3386-42.257 5.1198-7.2483 18.286-19.909 29.58-27.045 7.5848-4.7923 18.268-4.1347 24.932-10.142 3.5573-3.2065 3.7219-8.976 6.7612-12.677 8.8934-10.83 18.532-20.668 30.32-27.573 11.531-6.7539 26.282-6.3124 38.032-12.677 5.3773-2.9129 13.157-4.8946 16.586-10.459 2.3018-3.7346 0.67011-12.876 0.67011-12.876s-8.3524-16.026-10.018-23.718c-1.9984-9.2278 0.091-17.529-0.54631-26.296-0.5575-7.6691-2.9265-13.712-2.9324-21.4-0.0109-14.187 6.0706-29.089 5.2203-43.751-0.81589-14.07-0.596-27.903 0-41.835 0.63444-14.831 0.53878-29.889 3.8032-44.37 4.3324-19.219 13.088-37.189 20.706-55.357 7.0913-16.911 14.674-33.65 23.242-49.864 7.7308-14.631 14.972-29.795 25.354-42.68 7.1286-8.8469 16.589-15.529 24.932-23.242 8.419-7.7825 14.778-18.816 25.354-23.242 10.279-4.3006 33.383-1.6903 33.383-1.6903s29.102 7.7654 43.948 10.142c7.6813 1.2296 15.567 0.8409 23.242 2.1129 9.4372 1.5641 19.502 2.1632 27.89 6.7612 17.122 9.3855 30.051 25.327 42.257 40.567 3.398 4.2423 8.4515 13.945 8.4515 13.945s7.5635 14.746 10.987 21.551c7.2506 14.414 19.198 26.046 27.045 40.145 9.0138 16.196 13.654 33.555 19.438 50.709 6.0957 18.078 9.9862 36.849 16.058 54.935 3.4052 10.143 8.6672 19.66 11.409 30.003 5.8464 22.049 10.564 67.612 10.564 67.612s3.0119 9.8109 2.5354 14.79c-0.87465 9.1411-4.6209 18.139-9.7192 25.777-3.5408 5.3044-7.5347 11.096-11.853 15.789-4.1412 4.5001-9.8174 6.2986-11.111 12.276-1.351 6.244-1.235 13.061 2.2579 17.996 5.0953 7.1982 27.513 10.323 41.294 15.418 13.265 4.9042 27.657 7.4051 39.841 14.585 12.044 7.0975 23.152 15.062 32.589 25.376 12.668 13.844 15.634 30.23 29.973 42.949 12.155 10.782 22.846 17.798 30.447 32.529 13.63 26.419 19.337 63.789 25.329 96.502 4.7645 26.01 6.8259 61.539 7.1713 87.849 0.20842 15.875-12.29 22.643-12.55 35.558-0.15977 7.9366 8.6204 19.621 8.6653 27.789 0.034 6.1848-5.7474 10.629-7.1713 16.434-1.0228 4.1697-0.24805 9.2764 1.1952 13.596 1.4433 4.3192 7.6801 5.2228 8.0677 10.608 0.55859 7.7594-0.24064 13.332 1.5628 18.074 2.1525 5.6599 6.3119 10.193 12.332 18.828 2.4318 3.4885 3.7951 11.096 3.9981 17.566 0.20294 6.4696 1.6628 10.894 0.63342 13.884-1.3936 4.0476-3.5009 10.579-6.7485 15.002-3.0405 4.1409-3.3471 6.1603-4.8602 17.094-1.5131 10.934 14.482 45.57 10.981 71.417-3.4553 25.514 6.5621 55.307 13.858 87.088 7.2956 31.781 11.869 65.55 11.869 65.55" fill="#9ebbe0" stroke-width="0"/>
</svg>
