<?xml version="1.0" standalone="no"?>

<svg version="1.0" xmlns="http://www.w3.org/2000/svg" width="916" height="583" viewBox="0 0 916 583">

<g transform="translate(0, 583) scale(0.1,-0.1)" fill="#a1bde0" stroke="none">
<path d="M123 5809 c14 -8 22 -8 30 0 8 8 3 11 -18 11 -26 -1 -28 -2 -12 -11z"/>
<path d="M2155 5752 c39 -37 90 -93 114 -124 24 -32 46 -58 48 -58 15 0 63 36 63 48 0 24 -134 202 -152 202 -10 0 -18 -3 -18 -6 0 -3 29 -48 65 -100 73 -103 73 -129 1 -35 -63 81 -133 141 -165 141 -24 0 -20 -6 44 -68z"/>
<path d="M2613 5813 c9 -2 23 -2 30 0 6 3 -1 5 -18 5 -16 0 -22 -2 -12 -5z"/>
<path d="M3931 5799 c-18 -30 2 -48 118 -108 l91 -47 -105 -60 c-65 -36 -105 -65 -105 -75 0 -12 23 -23 83 -39 45 -13 85 -25 89 -27 4 -2 -4 -43 -17 -90 -17 -59 -21 -91 -14 -98 11 -11 38 3 301 153 167 95 156 92 206 56 2 -1 -9 -113 -23 -249 -25 -238 -26 -275 -7 -275 4 0 38 25 75 55 36 30 70 55 75 55 4 0 24 -21 44 -47 61 -80 78 -95 92 -83 8 5 16 45 20 88 4 42 10 94 13 114 l5 37 90 -70 c50 -38 97 -69 106 -69 11 0 83 102 200 281 176 268 183 281 167 299 -29 32 -236 129 -319 150 -44 11 -111 20 -149 20 -60 0 -68 2 -57 15 18 21 3 35 -37 35 -30 0 -34 -2 -23 -15 10 -12 -5 -42 -90 -172 -57 -87 -105 -160 -106 -162 -4 -5 -144 87 -144 94 0 3 33 56 73 118 40 62 76 117 80 124 5 8 -11 11 -53 11 -33 0 -60 -3 -60 -6 0 -3 9 -15 20 -27 18 -19 19 -24 6 -34 -12 -10 -26 -10 -70 0 -58 13 -86 8 -86 -15 0 -9 16 -16 48 -21 71 -10 78 -17 49 -51 -22 -25 -32 -29 -93 -32 -112 -6 -281 44 -398 119 -38 23 -46 33 -41 49 9 28 -36 27 -54 -1z m1194 -94 c67 -18 237 -98 255 -120 10 -12 -5 -42 -80 -157 -51 -79 -124 -191 -163 -250 -38 -60 -72 -108 -76 -108 -18 0 -177 139 -219 190 -55 69 -101 154 -109 205 -6 36 11 85 29 85 5 0 23 -22 39 -49 20 -32 36 -48 45 -44 22 8 17 27 -21 83 -39 58 -40 61 -24 77 8 8 21 7 46 -4 45 -18 97 -14 101 10 3 13 -4 17 -30 17 -18 1 -46 6 -61 13 l-29 12 21 27 c12 15 31 29 44 32 39 8 170 -2 232 -19z m-753 -112 c86 -5 96 -8 88 -22 -6 -11 -4 -21 6 -32 12 -13 12 -18 2 -26 -24 -20 -340 -194 -344 -190 -2 2 5 33 15 70 10 36 15 70 12 75 -3 5 -37 17 -74 27 -37 10 -64 22 -60 26 4 4 46 30 93 57 l85 49 40 -15 c22 -8 84 -17 137 -19z m337 -193 c7 -23 37 -77 67 -122 l56 -81 -11 -100 c-6 -55 -13 -102 -14 -104 -2 -1 -20 19 -40 46 -61 80 -59 79 -124 27 -31 -25 -59 -43 -61 -41 -4 4 24 312 34 373 4 28 8 31 28 26 13 -3 27 -1 30 5 13 20 23 11 35 -29z"/>
<path d="M6810 5794 c0 -33 33 -30 38 4 3 17 -2 22 -17 22 -16 0 -21 -6 -21 -26z"/>
<path d="M7123 5808 c2 -7 10 -13 17 -13 7 0 15 6 18 13 2 7 -5 12 -18 12 -13 0 -20 -5 -17 -12z"/>
<path d="M7401 5780 c-22 -39 -23 -70 -2 -70 6 0 17 12 25 28 8 15 25 39 40 55 l25 27 -33 0 c-27 0 -36 -6 -55 -40z"/>
<path d="M7600 5800 c0 -14 12 -21 47 -28 55 -12 59 -11 65 22 5 23 3 24 -54 24 -49 0 -58 -3 -58 -18z"/>
<path d="M8547 5795 c-39 -27 -46 -42 -23 -51 12 -5 126 60 126 71 0 16 -71 1 -103 -20z"/>
<path d="M8780 5805 c-6 -8 -9 -19 -5 -25 11 -17 32 -11 49 15 16 24 16 25 -8 25 -13 0 -29 -7 -36 -15z"/>
<path d="M8895 5798 c-43 -199 -55 -272 -43 -279 7 -5 17 -4 22 1 7 7 66 267 66 292 0 20 -40 6 -45 -14z"/>
<path d="M8993 5803 c3 -10 8 -33 12 -50 4 -19 13 -33 21 -33 20 0 25 18 16 60 -6 26 -14 36 -31 38 -18 3 -22 0 -18 -15z"/>
<path d="M9100 5815 c0 -3 13 -26 30 -53 l30 -47 0 37 c0 52 -9 68 -36 68 -13 0 -24 -2 -24 -5z"/>
<path d="M0 5756 c0 -30 10 -56 41 -103 40 -61 69 -81 69 -45 0 9 -25 55 -55 102 l-55 85 0 -39z"/>
<path d="M8415 5758 c-27 -15 -35 -28 -35 -59 0 -54 70 -79 110 -39 25 25 25 51 3 78 -23 26 -53 34 -78 20z m45 -58 c0 -11 -6 -20 -14 -20 -18 0 -29 16 -21 30 11 18 35 11 35 -10z"/>
<path d="M6847 5746 c-27 -8 -61 -25 -75 -39 l-25 -26 41 -208 c23 -114 69 -344 102 -511 32 -166 62 -307 65 -312 14 -22 33 -5 97 88 37 53 171 247 297 431 127 184 231 343 231 353 0 10 -16 35 -35 57 -107 118 -515 216 -698 167z m323 -52 c202 -40 369 -124 358 -181 -6 -33 -71 -45 -208 -40 -181 8 -377 64 -480 137 -48 35 -55 56 -24 77 15 9 45 20 68 24 54 10 192 2 286 -17z m-294 -156 c125 -66 316 -108 489 -108 l114 0 -66 -95 c-64 -91 -68 -95 -104 -95 -104 0 -308 42 -401 83 l-51 23 -22 112 c-12 62 -19 111 -16 110 3 -2 29 -15 57 -30z m109 -285 c92 -27 230 -53 286 -53 22 0 39 -2 39 -5 0 -3 -26 -44 -57 -91 l-57 -86 -56 7 c-68 8 -212 43 -224 55 -8 8 -45 168 -46 199 0 9 6 11 18 6 9 -5 53 -19 97 -32z m-30 -233 c15 -6 66 -17 113 -25 47 -8 87 -17 89 -19 3 -2 -35 -61 -83 -130 -48 -70 -88 -125 -90 -123 -3 3 -64 289 -64 301 0 8 4 8 35 -4z"/>
<path d="M8736 5738 c-11 -15 -13 -25 -6 -32 15 -15 44 6 48 33 4 28 -22 28 -42 -1z"/>
<path d="M7640 5708 c-53 -28 -90 -72 -73 -89 9 -9 22 -3 53 24 43 36 102 54 140 42 17 -5 20 -2 20 19 0 24 -3 26 -48 26 -30 0 -64 -8 -92 -22z"/>
<path d="M9020 5677 c0 -31 27 -57 36 -34 9 25 0 51 -19 55 -12 3 -17 -3 -17 -21z"/>
<path d="M140 5582 c-78 -25 -60 -128 21 -120 47 4 71 46 49 84 -16 29 -46 44 -70 36z m38 -59 c5 -17 -26 -29 -40 -15 -6 6 -7 15 -3 22 9 14 37 9 43 -7z"/>
<path d="M8797 5472 c-21 -22 -22 -62 -3 -87 15 -21 67 -25 90 -5 21 16 20 74 0 94 -21 22 -67 20 -87 -2z m63 -42 c0 -13 -7 -20 -20 -20 -19 0 -27 20 -13 33 13 14 33 6 33 -13z"/>
<path d="M1556 5159 c-17 -15 -32 -27 -34 -25 -2 3 -21 -12 -43 -32 -21 -20 -66 -62 -100 -92 -34 -30 -72 -65 -84 -77 -12 -13 -27 -23 -33 -23 -11 0 -41 -25 -133 -110 -70 -65 -99 -89 -122 -102 -11 -6 -36 -26 -55 -44 -33 -32 -34 -35 -21 -66 7 -18 21 -39 31 -46 10 -7 18 -17 18 -22 0 -5 13 -24 30 -42 47 -53 60 -68 60 -73 0 -6 49 -78 58 -85 4 -3 14 -18 22 -34 8 -17 27 -44 42 -60 47 -53 54 -62 61 -79 3 -9 10 -17 15 -17 5 0 15 -13 22 -30 7 -16 16 -30 21 -30 5 0 9 -7 9 -15 0 -9 6 -18 14 -21 8 -3 19 -18 26 -34 7 -16 18 -31 26 -34 30 -12 11 -26 -35 -26 -54 0 -124 -21 -147 -45 -9 -8 -22 -15 -30 -15 -8 0 -19 -11 -24 -25 -5 -14 -14 -25 -19 -25 -13 0 -31 -57 -31 -98 0 -79 44 -132 108 -132 12 0 24 -4 27 -10 8 -12 55 -13 55 -1 0 4 20 11 45 14 24 4 55 12 67 19 20 12 85 74 116 112 15 18 17 136 2 136 -6 0 -14 8 -17 17 -4 9 -14 24 -22 34 -26 28 -51 63 -51 71 0 4 -7 16 -16 26 -33 37 -64 77 -64 84 0 4 -13 22 -30 40 -48 54 -56 64 -63 81 -3 9 -11 17 -17 17 -5 0 -10 6 -10 13 0 11 -27 48 -63 87 -8 8 -18 25 -21 38 -4 12 -12 22 -17 22 -5 0 -9 7 -9 15 0 8 6 15 13 15 7 0 27 12 44 28 17 15 58 51 91 81 34 30 69 59 79 65 10 5 23 14 29 20 7 6 40 36 74 66 35 30 85 76 113 103 27 26 55 47 61 47 6 0 23 12 37 28 14 15 38 33 52 41 25 13 28 12 50 -11 13 -14 27 -33 30 -42 4 -9 11 -16 17 -16 5 0 10 -6 10 -12 0 -12 30 -52 65 -89 8 -9 15 -21 15 -28 0 -6 7 -14 15 -17 8 -4 15 -12 15 -19 0 -6 9 -20 20 -30 11 -10 20 -24 20 -32 0 -7 7 -16 15 -19 8 -4 15 -11 15 -18 0 -6 11 -24 25 -40 14 -16 25 -32 25 -35 0 -3 -21 -7 -48 -8 -55 -2 -132 -22 -132 -34 0 -4 -16 -16 -35 -25 -19 -9 -35 -22 -35 -30 0 -7 -6 -17 -13 -21 -17 -10 -37 -67 -37 -103 0 -45 20 -86 48 -101 15 -8 30 -18 34 -24 10 -14 177 -12 186 2 4 6 24 18 45 26 35 15 87 61 87 78 0 4 8 15 17 25 25 25 25 131 0 145 -9 6 -17 16 -17 22 0 7 -12 24 -27 37 -16 14 -35 38 -43 55 -8 16 -24 39 -35 50 -11 11 -27 33 -35 50 -16 31 -23 41 -68 91 -15 16 -34 43 -42 59 -8 16 -27 43 -42 59 -51 57 -56 64 -63 85 -3 12 -11 21 -16 21 -5 0 -14 11 -19 25 -5 14 -13 25 -18 25 -5 0 -14 11 -20 25 -13 28 -27 47 -54 73 -10 9 -18 22 -18 30 0 7 -7 15 -15 18 -8 4 -15 12 -15 20 0 23 -33 14 -64 -17z m62 -57 c9 -10 24 -31 32 -47 8 -17 25 -40 37 -52 24 -23 30 -43 14 -43 -5 0 -22 -13 -38 -30 -15 -16 -33 -30 -40 -30 -7 0 -35 -21 -62 -47 -28 -27 -69 -64 -92 -83 -23 -19 -49 -43 -57 -52 -9 -10 -21 -18 -27 -18 -6 0 -21 -10 -32 -22 -11 -13 -40 -39 -62 -58 -23 -19 -60 -52 -82 -72 -21 -21 -43 -38 -48 -38 -5 0 -23 -13 -41 -30 -37 -34 -40 -36 -40 -15 0 9 -6 18 -14 21 -8 3 -19 18 -26 34 -7 16 -18 31 -26 34 -8 3 -14 12 -14 21 0 8 -4 15 -10 15 -5 0 -10 9 -10 20 0 11 7 20 15 20 8 0 29 12 45 28 16 15 58 52 91 82 34 30 72 65 84 78 12 12 27 22 33 22 6 0 25 12 41 28 16 15 58 52 92 82 34 30 72 65 84 78 12 12 27 22 33 22 6 0 27 16 48 35 42 40 48 41 72 17z m472 -667 c17 -9 30 -22 30 -31 0 -8 5 -12 10 -9 6 4 10 -10 10 -34 0 -23 -4 -41 -10 -41 -5 0 -10 -7 -10 -15 0 -9 -7 -18 -15 -21 -8 -4 -15 -12 -15 -19 0 -8 -13 -21 -30 -29 -16 -9 -43 -23 -60 -32 -54 -28 -164 -18 -175 17 -4 10 -11 19 -16 19 -5 0 -9 20 -9 45 0 25 4 45 9 45 5 0 14 13 21 30 7 16 16 27 21 24 5 -3 9 0 9 5 0 6 6 11 14 11 8 0 16 6 19 14 12 32 148 46 197 21z m-706 -537 c-3 -4 4 -8 16 -8 32 0 68 -29 75 -60 7 -31 -11 -110 -24 -110 -5 0 -19 -11 -32 -24 -13 -13 -41 -29 -61 -37 -21 -7 -38 -17 -38 -21 0 -4 -25 -8 -56 -8 -31 0 -53 4 -50 9 4 5 -7 12 -24 16 -23 5 -32 14 -38 38 -11 40 4 109 26 121 9 5 25 19 36 31 23 24 76 45 112 45 13 0 24 4 24 9 0 6 9 9 19 8 11 0 17 -5 15 -9z"/>
<path d="M5907 4707 c-116 -68 -627 -411 -631 -424 -19 -49 -4 -75 326 -580 182 -280 342 -520 356 -535 51 -55 65 -49 407 176 171 112 320 213 333 224 45 42 33 75 -95 272 -65 99 -214 327 -332 507 -117 181 -225 340 -239 356 -32 34 -73 35 -125 4z m101 -42 c60 -76 672 -1025 672 -1042 0 -16 -74 -69 -317 -228 -175 -115 -327 -210 -339 -213 -11 -2 -27 4 -35 13 -13 17 -135 201 -509 773 -187 285 -189 291 -128 327 18 10 161 104 318 207 157 103 293 188 302 188 9 0 25 -11 36 -25z"/>
<path d="M5835 4584 c-122 -81 -130 -88 -130 -119 0 -55 -45 -86 -75 -50 -7 8 -17 15 -21 15 -12 0 -279 -178 -279 -186 0 -5 207 -325 544 -837 99 -151 141 -207 152 -203 13 5 363 233 553 361 41 28 76 55 78 60 3 12 -668 1037 -682 1042 -5 1 -68 -36 -140 -83z m434 -432 c69 -106 174 -265 233 -355 l107 -162 -247 -163 c-331 -218 -330 -218 -346 -201 -7 8 -63 91 -123 184 -61 94 -199 305 -307 469 -108 164 -196 303 -196 308 0 5 48 40 106 78 85 55 110 67 125 60 29 -16 74 -11 97 10 20 19 26 33 34 82 2 10 50 49 108 87 l105 68 89 -136 c48 -75 145 -223 215 -329z"/>
<path d="M5873 4319 c-62 -11 -116 -43 -160 -93 -90 -102 -83 -239 17 -349 65 -71 137 -109 219 -116 l65 -6 9 -38 c11 -46 28 -55 62 -33 13 9 28 16 32 16 4 0 24 -25 43 -55 21 -32 42 -55 53 -55 26 0 21 19 -19 79 l-37 54 32 26 c35 29 39 46 14 60 -52 30 -54 35 -35 72 26 51 23 187 -6 260 -52 132 -164 201 -289 178z m137 -59 c95 -49 161 -214 131 -327 -31 -113 -131 -159 -254 -117 -96 33 -197 159 -197 246 0 79 57 163 135 199 54 25 135 25 185 -1z m139 -464 c9 -10 3 -19 -29 -40 -47 -31 -56 -32 -63 -6 -4 14 4 25 27 39 38 24 50 25 65 7z"/>
<path d="M5767 4191 c-58 -64 -69 -139 -31 -213 14 -27 33 -35 47 -22 3 4 0 19 -8 35 -8 15 -15 51 -15 79 0 45 4 55 41 95 39 42 44 65 15 65 -8 0 -30 -18 -49 -39z"/>
<path d="M6271 3489 c-17 -16 -20 -24 -11 -33 14 -14 63 12 68 37 5 24 -29 22 -57 -4z"/>
<path d="M5642 4443 c2 -10 10 -18 18 -18 8 0 16 8 18 18 2 12 -3 17 -18 17 -15 0 -20 -5 -18 -17z"/>
<path d="M108 4274 c-11 -23 -8 -34 22 -90 19 -35 38 -64 41 -64 4 0 10 -7 13 -16 7 -18 -1 -26 -84 -81 -70 -46 -100 -73 -100 -89 0 -16 49 7 75 36 10 11 23 20 30 20 7 0 20 9 30 20 10 11 23 20 28 20 6 0 18 7 28 15 15 15 19 12 48 -35 17 -28 31 -52 31 -55 0 -3 -18 -5 -40 -5 -43 0 -90 -33 -90 -63 0 -27 -48 -67 -79 -67 -38 0 -61 -9 -61 -24 0 -9 13 -11 47 -6 66 8 91 25 109 69 24 61 110 94 139 54 11 -15 9 -21 -18 -40 -90 -67 -87 -63 -71 -88 25 -38 65 -49 107 -29 27 13 37 25 42 50 7 41 -3 82 -26 108 -18 18 -17 20 1 44 11 13 20 31 20 38 0 23 50 65 74 62 43 -6 59 -121 30 -218 -22 -73 -50 -114 -115 -162 -77 -57 -208 -63 -293 -13 -43 25 -46 25 -46 8 0 -28 104 -76 169 -77 l51 -1 -27 -20 c-69 -53 -74 -62 -71 -118 3 -47 5 -52 25 -50 21 3 124 69 131 85 2 5 9 8 15 8 7 0 24 11 39 25 15 14 31 25 36 25 5 0 17 9 27 20 10 11 23 20 29 20 6 0 23 11 38 25 15 14 31 25 36 25 5 0 17 9 27 20 10 11 24 20 32 20 7 0 13 4 13 8 0 4 15 16 33 27 55 32 61 42 44 69 -25 37 -98 43 -137 11 -8 -7 -25 -18 -38 -24 -23 -12 -23 -12 -9 11 28 43 40 148 26 218 -11 57 -22 82 -80 178 -21 36 -41 38 -74 8 -16 -15 -32 -26 -37 -26 -5 0 -16 -7 -24 -15 -8 -8 -23 -19 -32 -24 -12 -7 -14 -13 -7 -20 7 -7 29 2 69 29 32 22 63 40 67 40 9 0 49 -59 49 -72 0 -4 -12 -11 -26 -14 -17 -4 -38 -26 -61 -61 l-34 -54 -23 33 c-12 18 -25 40 -29 48 -4 8 -16 29 -27 45 -11 17 -23 37 -27 45 -4 8 -20 34 -35 56 -30 45 -36 74 -15 74 19 -1 47 -26 47 -43 0 -16 26 -31 34 -19 3 5 -2 19 -9 33 -8 13 -18 32 -21 42 -4 12 -17 17 -40 17 -27 0 -37 -5 -46 -26z m228 -429 c3 -8 -4 -28 -16 -45 -24 -33 -59 -40 -81 -14 -11 13 -11 17 2 25 9 4 27 17 40 28 29 24 48 26 55 6z m271 -66 c15 -15 10 -20 -105 -100 -52 -35 -106 -73 -122 -84 -34 -25 -164 -114 -198 -137 -15 -10 -30 -14 -34 -10 -17 17 13 68 57 97 24 17 45 33 45 38 0 4 6 7 14 7 7 0 24 10 37 23 13 12 36 29 52 36 15 8 27 18 27 23 0 4 6 8 13 8 8 0 22 9 32 20 10 11 23 20 28 20 6 0 21 10 33 21 47 45 99 60 121 38z"/>
<path d="M4153 4114 c-6 -3 -26 -28 -44 -55 -25 -39 -29 -53 -20 -62 13 -12 18 -8 64 58 19 27 52 33 60 12 3 -8 -46 -91 -108 -186 -126 -195 -108 -185 -168 -91 -13 19 -40 44 -62 55 -22 11 -42 21 -44 22 -7 4 54 93 63 93 6 0 45 -23 87 -51 70 -45 99 -54 99 -30 0 9 -183 131 -196 131 -14 0 -103 -143 -126 -202 -32 -81 -30 -212 4 -296 l26 -63 -26 17 c-94 62 -140 71 -199 40 -27 -13 -52 -51 -41 -61 3 -3 395 -260 551 -362 55 -36 106 -67 114 -70 38 -15 58 80 28 136 -8 16 -37 43 -65 61 -27 18 -50 35 -50 39 0 3 29 7 63 7 139 3 248 69 342 208 45 67 57 91 49 103 -5 8 -102 76 -216 150 l-206 135 59 92 c32 51 59 102 59 114 0 43 -53 73 -97 56z m-270 -314 c14 -11 29 -31 33 -43 3 -12 17 -36 30 -54 l24 -32 -31 -50 c-26 -42 -31 -57 -26 -92 6 -48 27 -74 73 -89 25 -9 43 -9 69 0 31 10 75 51 75 70 0 6 -27 26 -142 101 -6 4 -4 15 3 28 11 16 24 21 57 21 62 0 98 -23 124 -77 31 -63 64 -85 135 -91 45 -3 64 -10 86 -30 15 -14 27 -31 27 -37 0 -21 -65 -74 -125 -102 -53 -25 -72 -28 -155 -28 -84 0 -102 4 -153 29 -74 36 -147 109 -184 183 -25 52 -28 68 -28 158 1 121 13 155 53 155 16 0 41 -9 55 -20z m442 -118 c105 -68 191 -126 193 -127 2 -2 -12 -27 -31 -55 l-35 -52 -17 25 c-22 34 -73 57 -127 57 -55 0 -85 21 -108 75 -24 57 -66 85 -124 85 -25 0 -46 2 -46 6 0 3 18 32 41 65 25 37 45 57 52 53 7 -4 98 -63 202 -132z m-303 -138 c62 -38 68 -53 26 -68 -38 -13 -76 0 -93 35 -14 27 -13 69 2 69 3 0 32 -16 65 -36z m-260 -122 c56 -37 174 -114 260 -171 133 -87 159 -108 168 -137 26 -78 8 -70 -300 133 -162 107 -302 198 -310 204 -13 8 -12 11 4 24 36 28 70 17 178 -53z"/>
<path d="M9122 3925 c-17 -14 -34 -25 -38 -25 -13 -1 -64 -47 -64 -58 0 -5 8 -18 18 -30 9 -11 33 -46 51 -76 19 -31 40 -56 47 -56 7 0 15 -6 17 -12 3 -7 6 -3 6 9 1 12 -6 28 -14 37 -19 18 -19 25 1 47 9 10 14 26 12 36 -3 16 -7 14 -31 -11 l-27 -28 -10 23 c-5 13 -16 32 -22 42 -11 15 -10 20 7 33 11 8 27 20 35 27 9 7 24 16 33 20 9 3 17 16 17 27 0 26 -2 25 -38 -5z"/>
<path d="M7047 2827 c-75 -78 -146 -155 -158 -171 l-23 -29 129 -123 c164 -155 189 -168 301 -161 l83 5 46 -49 c50 -53 59 -95 29 -137 -16 -23 -13 -52 5 -52 12 0 275 287 279 305 5 24 -16 26 -50 5 -51 -31 -81 -26 -136 23 l-49 42 5 67 c8 105 -18 147 -180 296 -73 67 -135 122 -139 122 -4 0 -68 -64 -142 -143z m206 32 c36 -35 48 -52 38 -56 -8 -3 -31 -21 -53 -41 -29 -26 -43 -50 -59 -103 -16 -53 -30 -76 -60 -104 -21 -19 -49 -35 -61 -35 -22 0 -128 94 -128 113 0 13 250 277 262 277 5 0 33 -23 61 -51z m131 -121 c41 -33 86 -116 86 -158 0 -147 -153 -244 -285 -180 -54 26 -106 80 -85 88 8 3 34 23 56 46 30 30 46 57 59 101 18 63 78 135 113 135 10 0 35 -14 56 -32z m142 -328 c25 -23 59 -44 75 -47 16 -3 29 -8 29 -12 0 -4 -27 -33 -59 -65 l-59 -58 -6 29 c-4 16 -27 49 -51 73 l-44 43 32 38 c18 20 33 38 34 38 1 1 23 -17 49 -39z"/>
<path d="M6835 2883 c8 -87 10 -93 31 -93 10 0 14 13 14 48 0 84 -10 122 -32 122 -18 0 -19 -5 -13 -77z"/>
<path d="M6941 2856 c-31 -32 -37 -66 -12 -66 14 0 73 70 68 83 -7 22 -23 17 -56 -17z"/>
<path d="M6720 2853 c0 -18 60 -73 79 -73 24 0 9 39 -23 64 -40 30 -56 33 -56 9z"/>
<path d="M6566 2698 c-121 -10 -222 -21 -225 -23 -7 -7 18 -312 30 -367 14 -62 57 -120 114 -153 l45 -27 0 -65 c0 -80 -10 -100 -66 -125 -99 -43 -30 -50 256 -24 106 9 125 14 128 29 2 12 -3 17 -18 17 -26 0 -72 23 -90 45 -8 9 -17 44 -21 78 l-7 61 42 38 c25 22 52 59 65 89 22 51 22 54 11 233 -11 168 -20 218 -38 215 -4 -1 -106 -10 -226 -21z m209 -40 c2 -7 5 -42 8 -78 l4 -66 -66 4 c-59 3 -73 0 -126 -28 -69 -36 -138 -47 -175 -28 -22 12 -26 22 -33 92 -4 43 -5 81 -2 84 5 5 264 28 343 31 26 1 44 -4 47 -11z m-1 -191 c23 -17 33 -112 16 -161 -16 -48 -66 -105 -107 -122 -57 -24 -133 -18 -186 15 -55 35 -84 87 -93 164 l-7 55 64 -5 c58 -4 70 -1 134 31 75 38 146 47 179 23z m-99 -385 c3 -26 14 -65 25 -86 11 -22 19 -40 18 -41 -7 -5 -168 -14 -168 -9 0 3 5 15 12 27 6 12 11 51 10 87 l-2 65 49 2 50 3 6 -48z"/>
<path d="M2395 2559 c-151 -35 -205 -231 -94 -345 l30 -31 -136 -256 c-74 -141 -135 -262 -135 -270 0 -7 88 -70 196 -141 191 -126 196 -129 214 -110 54 55 490 611 489 624 0 8 -31 35 -70 59 -38 25 -69 48 -69 52 0 11 141 159 151 159 5 0 34 -16 64 -36 49 -33 75 -38 75 -14 0 9 -135 100 -148 100 -4 0 -83 -83 -177 -184 l-169 -184 -30 25 c-27 22 -36 25 -82 19 -58 -7 -71 2 -98 69 -9 22 -24 45 -32 52 -14 10 -11 22 31 98 30 56 50 83 58 78 7 -4 70 -44 141 -90 114 -74 156 -92 156 -66 0 4 -30 27 -66 51 -51 33 -64 47 -59 60 14 34 17 98 6 139 -28 103 -139 167 -246 142z m121 -48 c58 -26 87 -71 92 -144 5 -61 -5 -84 -32 -74 -12 5 -13 13 -6 36 19 69 -34 148 -107 158 -62 8 -110 -17 -134 -72 -23 -52 -19 -92 13 -138 12 -16 17 -35 13 -45 -5 -15 -11 -12 -35 15 -37 41 -54 102 -41 148 30 110 136 162 237 116z m-46 -81 c-6 -11 -12 -20 -14 -20 -2 0 -6 9 -9 20 -4 15 0 20 14 20 17 0 18 -3 9 -20z m-60 -5 c0 -8 -4 -15 -9 -15 -13 0 -22 16 -14 24 11 11 23 6 23 -9z m118 -23 c2 -7 -5 -12 -17 -12 -14 0 -19 5 -14 15 6 17 25 15 31 -3z m-154 -18 c23 -9 20 -24 -4 -24 -11 0 -20 7 -20 15 0 17 2 18 24 9z m166 -39 c0 -8 -6 -15 -14 -15 -20 0 -29 17 -14 23 22 9 28 7 28 -8z m-142 -34 c-9 -15 -15 -17 -25 -9 -20 16 -15 28 12 28 22 0 24 -2 13 -19z m-30 -216 c7 -14 12 -32 12 -39 0 -7 12 -25 26 -40 22 -22 36 -26 81 -26 58 0 93 -13 93 -33 0 -7 -36 -51 -80 -99 -71 -77 -96 -118 -72 -118 5 0 44 36 86 80 l78 80 31 -26 c27 -23 38 -26 77 -21 88 11 85 4 -86 -212 -87 -110 -163 -200 -167 -200 -8 -1 -347 218 -347 224 0 2 36 70 79 152 43 81 96 183 117 226 21 42 43 77 50 77 6 0 16 -11 22 -25z m487 -28 l64 -43 -61 -77 c-52 -66 -63 -75 -80 -66 -10 5 -42 9 -70 8 -42 -2 -54 1 -69 20 l-19 23 82 89 c45 49 83 89 85 89 2 0 32 -19 68 -43z"/>
<path d="M138 2419 c-97 -64 -138 -97 -138 -110 0 -10 2 -19 5 -19 3 0 70 43 148 95 96 64 149 94 160 89 15 -5 57 -63 57 -77 0 -12 -99 -67 -120 -67 -44 0 -105 -38 -128 -79 -13 -22 -44 -53 -72 -71 -31 -20 -50 -39 -50 -51 0 -25 4 -24 54 10 l43 30 12 -39 c12 -42 57 -86 97 -96 39 -10 100 2 133 25 38 28 66 98 57 146 -4 20 -22 53 -41 73 l-33 37 34 23 c18 12 36 22 39 22 5 0 122 -176 145 -219 9 -18 9 -26 -4 -40 -8 -9 -132 -93 -275 -186 -216 -141 -261 -174 -261 -193 0 -23 0 -23 48 9 26 17 60 40 76 52 l29 20 23 -28 c20 -26 26 -27 48 -17 22 10 26 8 42 -16 16 -25 16 -39 -5 -302 -26 -330 -26 -303 -2 -291 15 9 19 27 25 118 11 169 36 435 42 444 3 5 9 9 13 9 5 0 61 -81 126 -180 96 -148 120 -178 131 -169 12 10 12 15 1 33 -177 269 -219 338 -210 347 6 6 106 -24 272 -79 218 -73 265 -86 279 -76 20 15 51 2 -281 115 -220 75 -250 87 -267 113 -18 29 -18 30 3 46 20 17 20 19 4 43 -9 15 -17 29 -17 32 0 3 39 30 88 61 48 31 93 63 100 72 29 37 14 73 -106 252 -149 222 -131 217 -324 89z m188 -163 c38 -38 45 -85 20 -134 -32 -62 -126 -74 -177 -23 -24 24 -29 38 -29 76 0 40 5 52 34 81 28 28 42 34 76 34 34 0 48 -6 76 -34z m31 -353 c3 -7 -29 -34 -70 -62 -65 -43 -77 -48 -87 -35 -7 8 -11 16 -9 18 2 2 35 24 74 50 69 45 85 51 92 29z m2 -95 c12 -19 11 -23 -10 -39 -13 -10 -29 -19 -36 -19 -11 0 -39 39 -31 44 20 15 54 36 58 36 3 0 11 -10 19 -22z"/>
<path d="M192 2228 c-6 -6 -12 -29 -12 -49 0 -69 71 -98 123 -52 18 17 24 83 7 83 -6 0 -22 -8 -36 -17 -22 -14 -27 -15 -34 -2 -24 41 -35 50 -48 37z"/>
<path d="M260 2405 c-9 -10 -10 -19 -4 -25 13 -13 49 13 40 28 -10 16 -21 15 -36 -3z"/>
<path d="M9090 2282 c-31 -20 -99 -66 -153 -100 -106 -69 -127 -97 -107 -142 18 -39 190 -301 219 -332 40 -44 111 -35 111 14 0 17 -2 18 -30 3 -17 -9 -35 -13 -41 -9 -23 14 -162 236 -152 242 163 105 223 149 223 166 0 25 -10 20 -134 -64 -58 -38 -110 -70 -115 -70 -12 0 -51 63 -51 83 0 8 64 57 150 113 102 66 150 104 150 116 0 25 -7 23 -70 -20z"/>
<path d="M4808 2045 c-6 -27 8 -44 22 -29 16 17 15 48 -1 52 -11 2 -18 -6 -21 -23z"/>
<path d="M4735 2009 c-9 -13 12 -29 38 -29 26 0 17 34 -10 38 -11 2 -24 -2 -28 -9z"/>
<path d="M4840 1985 c0 -19 24 -29 46 -21 13 5 14 9 4 21 -16 20 -50 19 -50 0z"/>
<path d="M4787 1948 c-7 -26 -1 -38 19 -38 9 0 14 11 14 30 0 35 -25 41 -33 8z"/>
<path d="M4464 1947 c-3 -9 -1 -32 5 -54 12 -41 9 -45 -49 -84 -28 -19 -20 -39 18 -40 51 -1 66 -13 77 -65 14 -69 37 -70 61 -2 l20 53 58 0 c36 0 61 5 63 12 2 6 -16 26 -41 44 -26 18 -46 36 -46 39 0 4 7 24 16 45 22 54 6 65 -46 31 l-41 -27 -32 24 c-49 37 -57 40 -63 24z m112 -78 c23 10 25 10 19 -10 -5 -14 0 -28 16 -45 l22 -24 -32 0 c-25 0 -34 -6 -43 -27 l-11 -28 -10 33 c-8 25 -15 32 -36 32 l-26 0 23 18 c19 15 22 24 16 48 l-7 29 22 -19 c18 -16 25 -17 47 -7z"/>
<path d="M5050 1900 l-25 -41 -52 7 c-63 8 -68 -4 -23 -51 l30 -31 -30 -47 c-47 -74 -38 -83 46 -47 l47 20 34 -40 c52 -60 67 -54 59 23 l-7 62 41 17 c49 20 52 44 8 53 -63 13 -68 16 -68 43 0 40 -11 72 -24 72 -6 0 -22 -18 -36 -40z m30 -64 c0 -18 8 -27 28 -34 l27 -9 -23 -7 c-20 -7 -23 -13 -20 -42 l4 -34 -23 22 c-20 18 -26 20 -48 10 -37 -17 -38 -16 -18 18 13 23 15 32 5 42 -19 19 -14 26 12 21 18 -4 26 0 31 16 9 29 25 27 25 -3z"/>
<path d="M4290 1700 c0 -35 14 -39 30 -10 12 23 6 40 -16 40 -9 0 -14 -11 -14 -30z"/>
<path d="M4616 1711 c-9 -14 337 -535 357 -539 9 -2 17 1 17 7 0 10 -281 446 -328 509 -25 33 -37 39 -46 23z"/>
<path d="M4217 1674 c-11 -11 13 -34 35 -34 13 0 18 6 16 18 -3 17 -38 29 -51 16z"/>
<path d="M4322 1643 c4 -21 36 -29 51 -14 9 9 8 14 -3 21 -25 16 -52 12 -48 -7z"/>
<path d="M5004 1615 c-20 -136 14 -318 80 -427 55 -91 80 -67 27 26 -62 109 -90 271 -71 406 4 27 1 35 -12 38 -13 2 -18 -7 -24 -43z"/>
<path d="M4271 1608 c-10 -27 -6 -38 15 -38 8 0 14 9 14 20 0 11 0 23 1 27 2 19 -22 12 -30 -9z"/>
<path d="M5176 1485 c4 -25 1 -43 -11 -61 -21 -32 -14 -39 31 -35 23 2 42 -3 54 -14 26 -24 39 -11 33 33 -4 27 -1 42 11 51 9 7 16 20 16 28 0 11 -8 13 -37 8 -27 -4 -44 -1 -58 9 -34 26 -47 20 -39 -19z m64 -46 c0 -5 -4 -9 -10 -9 -5 0 -10 7 -10 16 0 8 5 12 10 9 6 -3 10 -10 10 -16z"/>
<path d="M4344 1453 c-9 -46 -10 -48 -53 -55 -65 -11 -70 -22 -22 -55 l41 -28 -6 -52 c-7 -62 1 -66 53 -26 38 29 35 30 110 -17 16 -11 25 -12 34 -3 8 8 4 24 -15 60 l-25 50 40 39 c56 55 52 67 -20 58 l-59 -6 -21 41 c-28 55 -47 53 -57 -6z m46 -60 c0 -12 8 -14 35 -11 39 4 46 -6 14 -23 -20 -10 -21 -20 -4 -63 8 -18 7 -18 -19 -1 -20 14 -30 15 -39 6 -17 -17 -27 -13 -27 12 0 12 -10 29 -22 37 l-23 14 30 6 c21 4 31 12 33 28 4 24 22 21 22 -5z"/>
<path d="M4510 1317 c0 -8 31 -23 75 -36 78 -24 199 -97 249 -150 18 -19 40 -31 55 -31 24 0 23 2 -19 46 -25 25 -77 67 -116 93 -102 69 -244 114 -244 78z"/>
<path d="M5000 1120 c0 -13 7 -20 20 -20 23 0 26 10 8 28 -18 18 -28 15 -28 -8z"/>
<path d="M4577 1124 c-11 -11 3 -24 25 -24 17 0 18 2 8 15 -13 16 -23 19 -33 9z"/>
<path d="M9055 885 c-14 -13 -25 -30 -25 -38 0 -26 41 -67 66 -67 31 0 64 33 64 65 0 30 -32 65 -60 65 -12 0 -32 -11 -45 -25z m62 -31 c9 -23 -13 -40 -32 -24 -12 10 -13 16 -4 26 15 18 28 18 36 -2z"/>
<path d="M8581 801 c-27 -27 -27 -65 -1 -91 55 -55 139 17 93 79 -26 33 -65 39 -92 12z m58 -35 c9 -10 8 -16 -4 -26 -19 -16 -41 1 -32 24 8 20 21 20 36 2z"/>
<path d="M9056 743 c-15 -50 -64 -307 -60 -315 10 -16 34 -8 39 15 28 122 61 295 57 305 -6 18 -30 14 -36 -5z"/>
<path d="M2640 667 c0 -13 -5 -28 -12 -35 -9 -9 -5 -12 19 -12 18 0 35 -6 40 -12 5 -8 10 2 14 27 4 22 6 40 5 41 0 1 -16 4 -33 7 -29 6 -33 4 -33 -16z"/>
<path d="M8665 670 c-8 -13 167 -275 185 -275 28 0 12 36 -70 161 -77 116 -100 138 -115 114z"/>
<path d="M7246 617 c-15 -51 -18 -54 -63 -68 -63 -20 -65 -39 -9 -75 45 -28 46 -30 46 -81 0 -59 11 -72 43 -49 12 9 32 23 44 32 20 14 29 14 73 3 27 -7 53 -10 57 -6 4 4 -1 30 -10 59 l-16 51 30 43 c17 25 27 49 24 54 -3 6 -30 10 -60 10 -50 0 -55 2 -85 40 -17 22 -38 40 -45 40 -8 0 -20 -23 -29 -53z m120 -69 c39 3 41 -1 15 -35 -16 -19 -18 -30 -10 -49 14 -39 11 -43 -22 -34 -26 8 -37 5 -60 -11 l-29 -20 0 35 c0 27 -6 40 -25 52 -32 21 -31 27 5 41 22 8 32 20 37 44 l6 32 25 -28 c19 -23 32 -28 58 -27z"/>
<path d="M296 619 c-31 -25 -34 -61 -6 -89 39 -39 110 -11 110 43 0 28 -9 41 -37 56 -30 15 -36 14 -67 -10z m60 -58 c-9 -14 -33 -14 -41 -1 -4 6 -1 18 6 26 11 13 14 13 27 0 8 -8 11 -19 8 -25z"/>
<path d="M8876 631 c-9 -15 13 -63 27 -58 19 6 15 61 -5 65 -9 2 -19 -1 -22 -7z"/>
<path d="M8 556 c-9 -21 -9 -29 1 -39 10 -9 15 -8 27 8 8 11 13 26 12 34 -5 25 -27 23 -40 -3z"/>
<path d="M8895 503 c8 -52 21 -83 35 -83 18 0 21 22 9 75 -10 44 -16 55 -32 55 -17 0 -19 -5 -12 -47z"/>
<path d="M2807 514 c-3 -16 2 -24 17 -28 23 -6 22 -7 30 20 5 17 2 22 -18 26 -19 4 -25 0 -29 -18z"/>
<path d="M113 453 c-92 -62 -113 -81 -113 -100 0 -17 4 -22 13 -17 75 46 244 160 249 168 9 14 0 26 -20 25 -9 0 -68 -34 -129 -76z"/>
<path d="M4248 463 c-20 -32 -92 -143 -160 -248 -68 -104 -128 -196 -132 -202 -5 -9 0 -13 17 -13 24 0 39 21 328 463 7 10 47 -17 137 -92 110 -92 209 -257 199 -332 -5 -35 -3 -39 16 -39 14 0 30 13 45 35 l22 35 55 -35 c38 -24 67 -35 93 -35 37 0 36 1 -56 62 -81 53 -96 60 -113 50 -25 -16 -26 -16 -32 16 -8 37 -72 140 -130 206 -51 59 -213 186 -237 186 -8 0 -32 -26 -52 -57z"/>
<path d="M9134 502 c-16 -11 -64 -85 -64 -99 0 -7 8 -13 19 -13 19 0 71 68 71 94 0 18 -13 27 -26 18z"/>
<path d="M2607 474 c-3 -16 2 -24 17 -28 23 -6 22 -7 30 20 5 17 2 22 -18 26 -19 4 -25 0 -29 -18z"/>
<path d="M8620 457 c0 -19 21 -37 42 -37 21 0 24 20 6 38 -16 16 -48 15 -48 -1z"/>
<path d="M8310 400 c-11 -11 -20 -31 -20 -45 0 -30 32 -65 60 -65 24 0 70 42 70 63 0 8 -9 26 -21 41 -25 31 -61 34 -89 6z m57 -36 c8 -21 -13 -42 -28 -27 -13 13 -5 43 11 43 6 0 13 -7 17 -16z"/>
<path d="M8697 413 c-13 -12 -7 -19 38 -52 43 -31 75 -35 75 -11 0 12 -78 70 -95 70 -6 0 -15 -3 -18 -7z"/>
<path d="M2078 371 c-26 -4 -50 -10 -54 -14 -4 -4 -11 -32 -15 -63 -17 -124 44 -301 100 -292 19 3 19 5 -10 47 -16 25 -28 49 -26 55 2 6 22 12 44 14 l40 3 22 -60 c17 -46 27 -61 42 -61 23 0 23 -2 -1 55 -11 26 -20 51 -20 56 0 21 161 -25 294 -83 61 -26 78 -30 145 -26 l76 3 198 129 c108 71 197 135 197 142 0 35 -181 104 -273 104 -31 0 -36 -4 -52 -46 -19 -50 -62 -84 -107 -84 -15 0 -81 20 -146 44 -177 66 -342 94 -454 77z m306 -66 c48 -14 129 -41 180 -61 74 -29 99 -34 133 -29 51 7 94 41 118 91 l17 37 61 -7 c33 -3 85 -17 116 -31 l55 -26 -145 -96 c-255 -171 -273 -176 -411 -119 -167 69 -244 88 -355 89 -115 0 -113 -1 -113 87 0 60 9 88 29 94 43 13 229 -4 315 -29z"/>
<path d="M9137 363 c-13 -12 -7 -33 8 -33 8 0 15 9 15 20 0 20 -11 26 -23 13z"/>
<path d="M6826 351 c-9 -14 3 -39 21 -46 21 -8 34 14 22 37 -10 19 -34 24 -43 9z"/>
<path d="M8885 350 c-4 -6 -5 -29 -4 -51 3 -34 -1 -44 -29 -70 -38 -36 -32 -53 23 -63 28 -6 39 -15 55 -46 11 -22 26 -40 33 -40 6 0 22 18 35 40 20 36 26 40 63 40 53 0 61 22 22 63 -27 29 -29 36 -21 71 12 54 -1 64 -51 41 -39 -17 -41 -17 -76 4 -42 24 -42 24 -50 11z m85 -73 c8 0 23 4 33 8 16 6 17 4 11 -19 -4 -19 -1 -33 11 -46 17 -19 17 -20 1 -20 -9 0 -28 -11 -40 -24 l-24 -23 -11 23 c-6 14 -19 24 -31 24 -24 0 -26 13 -4 31 9 7 14 22 11 36 -4 19 -1 23 12 17 9 -4 23 -7 31 -7z"/>
<path d="M8442 333 c3 -15 35 -25 162 -51 112 -23 162 -30 169 -23 21 21 -10 33 -150 62 -167 34 -186 35 -181 12z"/>
<path d="M6907 333 c-13 -12 -7 -43 7 -43 19 0 48 29 41 41 -7 10 -39 12 -48 2z"/>
<path d="M7084 305 c-4 -21 -2 -65 3 -99 6 -33 8 -75 6 -92 -3 -17 0 -49 7 -72 9 -35 15 -42 35 -42 24 0 24 0 10 41 -8 23 -15 43 -15 44 0 1 19 0 43 -2 51 -6 77 13 77 56 0 49 -21 65 -74 58 -52 -7 -48 -13 -51 83 -1 42 -5 56 -17 58 -12 2 -19 -7 -24 -33z m126 -160 c0 -9 -7 -18 -16 -22 -18 -7 -39 11 -30 26 11 17 46 13 46 -4z"/>
<path d="M157 313 c-19 -18 -6 -34 25 -31 44 4 53 38 10 38 -16 0 -32 -3 -35 -7z"/>
<path d="M7350 300 c-8 -15 -9 -25 -2 -32 17 -17 44 -1 40 24 -4 30 -24 34 -38 8z"/>
<path d="M60 296 c-37 -7 -55 -16 -55 -26 0 -12 12 -14 55 -13 58 3 91 22 68 40 -9 7 -31 6 -68 -1z"/>
<path d="M6812 267 c-7 -8 -7 -18 -2 -27 11 -18 43 -2 48 24 4 20 -30 22 -46 3z"/>
<path d="M6885 260 c-7 -12 16 -50 32 -50 16 0 22 22 11 43 -9 18 -33 23 -43 7z"/>
<path d="M7274 258 c-4 -6 1 -17 11 -25 24 -17 34 -17 42 3 10 26 -38 47 -53 22z"/>
<path d="M7383 234 c-10 -26 38 -47 53 -22 4 6 -1 17 -11 25 -24 17 -34 17 -42 -3z"/>
<path d="M7614 183 l-50 -56 -26 26 c-32 32 -57 34 -88 9 -32 -26 -21 -68 21 -86 l31 -13 -38 -31 -39 -32 34 0 c28 0 46 12 112 78 85 82 124 135 114 152 -11 17 -19 12 -71 -47z m-109 -54 c10 -15 -1 -23 -20 -15 -9 3 -13 10 -10 16 8 13 22 13 30 -1z"/>
<path d="M7325 190 c-7 -23 1 -40 19 -40 14 0 29 38 20 52 -10 15 -33 8 -39 -12z"/>
<path d="M8695 196 c-32 -7 -50 -16 -50 -26 0 -12 11 -14 55 -12 56 4 88 21 76 41 -8 13 -15 13 -81 -3z"/>
<path d="M2 184 c3 -16 29 -24 162 -52 114 -24 161 -31 169 -23 7 7 8 14 1 21 -11 11 -201 55 -283 66 -48 6 -53 5 -49 -12z"/>
<path d="M8571 171 c-23 -15 -5 -44 21 -36 31 10 42 21 34 34 -9 13 -36 14 -55 2z"/>
<path d="M380 140 c-11 -11 -20 -29 -20 -40 0 -24 42 -70 63 -70 24 0 67 40 67 64 0 59 -68 88 -110 46z m68 -37 c5 -17 -26 -29 -40 -15 -6 6 -7 15 -3 22 9 14 37 9 43 -7z"/>
<path d="M6635 147 c-28 -21 -12 -32 45 -32 40 0 54 -5 79 -29 16 -16 33 -42 36 -57 5 -22 12 -29 30 -29 21 0 23 3 15 29 -12 42 -25 63 -59 95 -37 35 -113 47 -146 23z"/>
<path d="M6907 142 c-21 -23 -22 -66 -1 -86 18 -19 75 -21 92 -4 17 17 15 74 -4 92 -21 22 -67 20 -87 -2z m61 -45 c2 -12 -3 -17 -17 -17 -15 0 -21 6 -21 21 0 25 33 22 38 -4z"/>
<path d="M8684 65 l-99 -65 40 1 c31 0 56 11 110 47 65 44 85 70 59 79 -6 2 -55 -26 -110 -62z"/>
<path d="M0 96 c0 -28 52 -71 75 -62 23 8 18 23 -17 49 -54 40 -58 41 -58 13z"/>
<path d="M9130 106 c0 -7 7 -19 15 -26 13 -11 15 -8 15 14 0 16 -5 26 -15 26 -8 0 -15 -6 -15 -14z"/>
<path d="M4510 70 c0 -6 7 -24 15 -40 11 -21 23 -30 40 -30 l25 0 -21 40 c-13 25 -28 40 -40 40 -10 0 -19 -5 -19 -10z"/>
<path d="M7610 59 c0 -8 -3 -24 -6 -36 -5 -18 -2 -23 11 -23 10 0 23 7 30 16 10 15 13 15 27 0 22 -22 45 -20 51 4 7 26 -11 39 -67 46 -36 5 -46 4 -46 -7z"/>
<path d="M8816 38 l-26 -33 22 -3 c23 -4 62 32 55 51 -7 22 -26 17 -51 -15z"/>
<path d="M9074 56 c-9 -24 15 -56 42 -56 l25 0 -17 30 c-21 34 -42 46 -50 26z"/>
<path d="M95 30 c-11 -17 5 -30 36 -30 33 0 36 7 12 26 -22 16 -40 18 -48 4z"/>
<path d="M8912 28 c-18 -18 -15 -28 7 -28 26 0 34 15 18 29 -10 8 -17 7 -25 -1z"/>
<path d="M8990 15 c0 -8 9 -15 20 -15 11 0 20 7 20 15 0 8 -9 15 -20 15 -11 0 -20 -7 -20 -15z"/></g>
</svg>
