<?xml version="1.0" encoding="UTF-8" standalone="no"?>
<svg
   width="57.17033mm"
   height="78.707375mm"
   viewBox="0 0 57.17033 78.707375"
   version="1.1"
   id="svg1"
   xml:space="preserve"
   xmlns="http://www.w3.org/2000/svg"
   xmlns:svg="http://www.w3.org/2000/svg"><defs
     id="defs1" /><g
     id="layer1"
     transform="translate(-51.590169,-37.911208)"><path
       style="fill:#fff;stroke-width:0.0467833"
       d="m 66.03577,110.5333 -0.01187,-6.11957 -3.578926,-0.0247 c -3.500365,-0.0242 -3.59013,-0.0271 -4.089375,-0.13179 -2.611553,-0.54778 -4.690244,-2.19012 -5.871204,-4.638772 -0.467935,-0.97024 -0.736092,-1.91923 -0.844146,-2.9874 -0.06593,-0.651706 -0.06717,-50.318711 -0.0013,-50.953795 0.357019,-3.440929 2.621382,-6.337909 5.754043,-7.361605 1.142653,-0.373398 1.51634,-0.402644 5.157221,-0.403619 l 3.029221,-8.1e-4 v 0.605892 0.605892 l -3.356705,0.01718 c -3.710177,0.01898 -3.56119,0.0078 -4.53235,0.341203 -2.641998,0.907096 -4.532197,3.365831 -4.835126,6.289438 -0.06621,0.639043 -0.0645,50.117285 0.0018,50.766654 0.264116,2.58851 1.776666,4.832192 4.015044,5.955842 0.18986,0.0953 0.589858,0.25419 0.888883,0.35307 0.999464,0.3305 0.951169,0.32759 5.440786,0.32759 h 4.015123 v 5.49704 c 0,3.02338 0.01224,5.49705 0.0272,5.49705 0.03094,0 0.898788,-0.68344 8.48737,-6.68383 l 5.450259,-4.30959 13.789391,-4.6e-4 13.789391,-4.7e-4 v 0.60818 0.60819 H 95.176301 86.604418 81.592117 l -1.585315,1.25319 c -9.662009,7.63784 -13.85218,10.94602 -13.900855,10.97483 -0.04641,0.0275 -0.06073,-1.21444 -0.07018,-6.08506 z m 1.507968,-66.154294 -6.23e-4,-1.906422 1.109975,-2.280687 1.109972,-2.280688 h 0.999054 c 0.955508,0 0.997833,0.0038 0.971213,0.08771 -0.01531,0.04824 -0.350997,0.979812 -0.745965,2.070163 l -0.718129,1.982455 0.742812,0.01286 0.742812,0.01285 v 2.104091 2.104092 h -2.105251 -2.10525 l -6.23e-4,-1.906421 z m 6.363155,8.42e-4 v -1.906532 l 1.111105,-2.281048 1.111104,-2.281048 0.994146,-6e-6 c 0.54678,-3e-6 0.993117,0.01578 0.991863,0.03508 -0.0013,0.0193 -0.334487,0.950871 -0.740505,2.070163 l -0.738223,2.035075 0.735065,0.01283 0.735069,0.01283 0.03274,1.741547 c 0.01801,0.957851 0.02572,1.89944 0.01713,2.092421 l -0.01561,0.350876 -2.116946,0.01217 -2.116947,0.01217 z"
       id="path1" /></g></svg>
