<?xml version="1.0" encoding="UTF-8" standalone="no"?>

<svg
   width="85.240311mm"
   height="78.708229mm"
   viewBox="0 0 85.240311 78.708229"
   version="1.1"
   id="svg1"
   xml:space="preserve"
   xmlns="http://www.w3.org/2000/svg"
   xmlns:svg="http://www.w3.org/2000/svg"><defs
     id="defs1" /><g
     id="layer1"
     transform="translate(-51.590169,-37.910354)"><path
       style="fill:#fff;stroke-width:0.0467833"
       d="m 66.03577,110.5333 -0.01187,-6.11957 -3.578926,-0.0247 c -3.500365,-0.0242 -3.59013,-0.0271 -4.089375,-0.13179 -2.611553,-0.54778 -4.690244,-2.19012 -5.871204,-4.638772 -0.467935,-0.97024 -0.736092,-1.91923 -0.844146,-2.9874 -0.06593,-0.651706 -0.06717,-50.318711 -0.0013,-50.953795 0.357019,-3.440929 2.621382,-6.337909 5.754043,-7.361605 1.142653,-0.373398 1.51634,-0.402644 5.157221,-0.403619 l 3.029221,-8.1e-4 v 0.605892 0.605892 l -3.356705,0.01718 c -3.710177,0.01898 -3.56119,0.0078 -4.53235,0.341203 -2.641998,0.907096 -4.532197,3.365831 -4.835126,6.289438 -0.06621,0.639043 -0.0645,50.117285 0.0018,50.766654 0.264116,2.58851 1.776666,4.832192 4.015044,5.955842 0.18986,0.0953 0.589858,0.25419 0.888883,0.35307 0.999464,0.3305 0.951169,0.32759 5.440786,0.32759 h 4.015123 v 5.49704 c 0,3.02338 0.01224,5.49705 0.0272,5.49705 0.03094,0 0.898788,-0.68344 8.48737,-6.68383 l 5.450259,-4.30959 13.789391,-4.6e-4 13.789391,-4.7e-4 v 0.60818 0.60819 H 95.176301 86.604418 81.592117 l -1.585315,1.25319 c -9.662009,7.63784 -13.85218,10.94602 -13.900855,10.97483 -0.04641,0.0275 -0.06073,-1.21444 -0.07018,-6.08506 z m 45.03926,-6.22483 c 0.0177,-0.045 0.34635,-0.9488 0.73035,-2.00837 0.38399,-1.05958 0.71086,-1.95958 0.72637,-1.99999 0.0249,-0.0649 -0.0597,-0.0735 -0.72534,-0.0735 h -0.75354 v -2.105252 -2.10525 h 2.10525 2.10525 v 1.91714 1.91714 l -1.10637,2.269972 -1.10637,2.26997 h -1.00388 c -0.93715,0 -1.00175,-0.005 -0.97172,-0.0819 z m 6.52345,-0.42015 c 0.20898,-0.58188 1.26922,-3.51604 1.30201,-3.60322 0.017,-0.0453 -0.14817,-0.0585 -0.73154,-0.0585 h -0.75354 v -2.105732 -2.105725 l 2.11694,0.01217 2.11695,0.01217 0.0122,1.854735 0.0122,1.85473 -0.32329,0.671572 c -0.17781,0.36936 -0.6831,1.4084 -1.12288,2.30898 l -0.79959,1.63742 -1.00523,0.0126 -1.00523,0.0126 z m 6.0859,-0.10405 v -0.60607 l 3.19296,-0.0149 3.19296,-0.0149 0.53801,-0.1449 c 1.30546,-0.35159 2.31114,-0.92912 3.24937,-1.866 0.49251,-0.49179 0.93634,-1.0765 1.25074,-1.647722 l 0.18668,-0.33918 h 0.65073 c 0.35791,0 0.65074,0.009 0.65074,0.019 0,0.0675 -0.32335,0.71768 -0.54014,1.086032 -1.15275,1.95872 -2.99199,3.35727 -5.13457,3.90432 -0.81514,0.20812 -1.1968,0.22848 -4.30183,0.22945 l -2.93565,9.3e-4 z m -56.140642,-59.405264 -6.23e-4,-1.906422 1.109975,-2.280687 1.109972,-2.280688 h 0.999054 c 0.955508,0 0.997833,0.0038 0.971213,0.08771 -0.01531,0.04824 -0.350997,0.979812 -0.745965,2.070163 l -0.718129,1.982455 0.742812,0.01286 0.742812,0.01285 v 2.104091 2.104092 h -2.105251 -2.10525 l -6.23e-4,-1.906421 z m 6.363155,8.42e-4 v -1.906532 l 1.111105,-2.281048 1.111104,-2.281048 0.994146,-6e-6 c 0.54678,-3e-6 0.993117,0.01578 0.991863,0.03508 -0.0013,0.0193 -0.334487,0.950871 -0.740505,2.070163 l -0.738223,2.035075 0.735065,0.01283 0.735069,0.01283 0.03274,1.741547 c 0.01801,0.957851 0.02572,1.89944 0.01713,2.092421 l -0.01561,0.350876 -2.116946,0.01217 -2.116947,0.01217 z m 61.519327,-0.910226 c -0.19114,-0.46299 -0.64461,-1.228548 -0.96845,-1.634985 -0.38366,-0.48152 -1.17244,-1.214596 -1.64815,-1.531746 -0.76834,-0.512241 -1.40037,-0.789422 -2.34166,-1.026943 l -0.49123,-0.123954 -24.72499,-0.0239 -24.725004,-0.0239 -0.01309,-0.596921 -0.0131,-0.596922 4.85157,0.0029 7.505782,0.0045 12.357352,0.0074 c 27.12809,0.01613 24.83689,-0.009 25.91425,0.284487 2.20736,0.601352 4.11221,2.191648 5.1837,4.327711 0.24805,0.4945 0.51728,1.148172 0.51728,1.255909 0,0.04523 -0.14984,0.05955 -0.62305,0.05955 h -0.62305 l -0.15816,-0.38307 z"
       id="path1" /></g></svg>
