<?xml version="1.0" encoding="UTF-8" standalone="no"?>
<!-- Created with Inkscape (http://www.inkscape.org/) -->

<svg
   width="56.329941mm"
   height="66.481827mm"
   viewBox="0 0 56.329941 66.481827"
   version="1.1"
   id="svg1"
   xml:space="preserve"
   xmlns="http://www.w3.org/2000/svg"
   xmlns:svg="http://www.w3.org/2000/svg"><defs
     id="defs1" /><g
     id="layer1"
     transform="translate(-98.272173,-77.639112)"><path
       d="m 128.84666,144.03723 c 0.0177,-0.045 0.34635,-0.9488 0.73035,-2.00837 0.38399,-1.05958 0.71086,-1.95958 0.72637,-1.99999 0.0249,-0.0649 -0.0597,-0.0735 -0.72534,-0.0735 h -0.75354 v -2.10525 -2.10525 h 2.10525 2.10525 v 1.91714 1.91715 l -1.10637,2.26996 -1.10637,2.26997 h -1.00388 c -0.93715,0 -1.00175,-0.005 -0.97172,-0.0819 z m 6.52345,-0.42015 c 0.20898,-0.58188 1.26922,-3.51604 1.30201,-3.60322 0.017,-0.0453 -0.14817,-0.0585 -0.73154,-0.0585 h -0.75354 v -2.10573 -2.10572 l 2.11694,0.0122 2.11695,0.0122 0.0122,1.85473 0.0122,1.85473 -0.32329,0.67157 c -0.17781,0.36936 -0.6831,1.4084 -1.12288,2.30898 l -0.79959,1.63742 -1.00523,0.0126 -1.00523,0.0126 z m 6.0859,-0.10405 v -0.60607 l 3.19296,-0.0149 3.19296,-0.0149 0.53801,-0.1449 c 1.30546,-0.35159 2.31114,-0.92912 3.24937,-1.866 0.49251,-0.49179 0.93634,-1.0765 1.25074,-1.64772 l 0.18668,-0.33918 h 0.65073 c 0.35791,0 0.65074,0.009 0.65074,0.019 0,0.0675 -0.32335,0.71768 -0.54014,1.08603 -1.15275,1.95872 -2.99199,3.35727 -5.13457,3.90432 -0.81514,0.20812 -1.1968,0.22848 -4.30183,0.22945 l -2.93565,9.3e-4 z m 11.74184,-60.314643 c -0.19114,-0.46299 -0.64461,-1.228548 -0.96845,-1.634985 -0.38366,-0.48152 -1.17244,-1.214596 -1.64815,-1.531746 -0.76834,-0.512241 -1.40037,-0.789422 -2.34166,-1.026943 l -0.49123,-0.123954 -24.72499,-0.0239 -19.97032,-0.0193 -4.754685,-0.0046 -0.01309,-0.596921 -0.0131,-0.596922 4.851575,0.0029 7.50578,0.0045 12.35735,0.0074 c 27.12809,0.01613 24.83689,-0.009 25.91425,0.284487 2.20736,0.601352 4.11221,2.191648 5.1837,4.327711 0.24805,0.4945 0.51728,1.148172 0.51728,1.255909 0,0.04523 -0.14984,0.05955 -0.62305,0.05955 h -0.62305 l -0.15816,-0.38307 z"
       style="fill:#fff;stroke-width:0.0467833"
       id="path1-0" /></g></svg>
