<svg width="1394" height="68" viewBox="0 0 1394 68" fill="none" xmlns="http://www.w3.org/2000/svg">
<path d="M1393.52 28.6264C1390.22 28.6875 1386.94 29.1987 1383.18 29.2686C1318.76 30.4654 1318.18 -0.586165 1254.22 0.601904C1189.8 1.79871 1190.38 32.8503 1126.42 34.0383C1062 35.2351 1061.42 4.18359 997.468 5.37166C933.043 6.56846 933.621 37.62 869.667 38.8081C805.242 40.0049 804.665 8.95333 740.712 10.1414C676.287 11.3382 676.864 42.3898 612.91 43.5778C548.486 44.7746 547.909 13.7231 483.955 14.9111C419.531 16.108 420.108 47.1595 356.154 48.3476C291.73 49.5444 291.153 18.4928 226.728 19.6896C162.774 20.8777 163.351 51.9293 98.9271 53.1261C34.9731 54.3141 34.3964 23.2626 -30.0279 24.4594C-93.9818 25.6474 -93.405 56.699 -157.829 57.8958C-197.33 58.6296 -212.596 47.2086 -233.454 38.5925L-233.454 67.4999L612.91 67.4999L1393.52 67.4999L1393.52 28.6264Z" fill="red"/>
</svg>
