<svg width="1174" height="193" viewBox="0 0 1174 193" fill="none" xmlns="http://www.w3.org/2000/svg">
<path d="M14.1183 51.3687C18.7167 53.3171 29.859 53.14 29.859 53.14C30.0359 53.14 27.3829 45.8776 27.2061 45.3462C24.73 40.2095 16.9481 31.7072 10.7579 32.5929C6.15952 33.1243 3.68345 37.7297 4.74462 41.9808C5.80579 46.409 10.2273 49.5974 14.1183 51.3687Z" fill="hsl(0deg, 0%, 90%)"/>
<path d="M18.0095 83.782C22.7847 84.4905 32.689 81.6565 33.5733 81.3022C35.1651 86.9704 37.2874 92.4614 39.5866 98.1296C41.0015 101.318 42.4164 104.506 44.0082 107.695C43.1239 106.278 42.2395 105.215 42.0627 105.038C38.3486 100.787 28.6212 94.587 22.7847 97.0668C18.5401 98.8381 17.302 103.975 19.4244 107.872C21.5467 111.769 26.8526 113.717 30.9204 114.426C35.1651 115.134 43.6544 112.831 45.9536 112.123C46.4842 113.363 47.1917 114.603 47.7223 115.665C50.5521 121.511 53.5587 127.179 56.2116 132.847C57.0959 134.795 57.9803 136.921 58.8646 138.869C57.9803 137.63 57.4497 136.744 57.2728 136.567C53.5587 132.316 43.8313 126.116 37.9949 128.596C33.7502 130.367 32.5121 135.504 34.6345 139.401C36.7568 143.298 42.0627 145.246 46.1305 145.955C50.1983 146.486 58.1571 144.538 60.81 143.829C61.6944 145.955 62.4018 148.08 63.1092 150.029C63.6398 151.446 64.1704 152.863 64.5241 154.28C64.8779 155.697 65.2316 157.114 65.7622 158.531C66.4696 161.188 67.1771 164.022 67.7077 166.679C68.0614 168.45 68.4151 170.399 68.7688 172.17C67.8845 170.221 65.939 166.325 65.7622 165.97C62.7555 161.188 54.0893 153.571 47.8991 155.165C43.4776 156.228 41.5321 161.188 42.947 165.262C44.5387 169.513 49.314 172.17 53.3818 173.41C57.8034 174.827 67.7077 173.587 68.9457 173.41C69.4763 176.421 70.0069 179.255 70.5374 181.912C71.5986 187.403 72.3061 192.54 72.8367 196.791H76.9045C76.197 192.363 75.3127 187.049 74.0747 181.204C73.5441 178.192 72.8366 175.004 72.1292 171.639C72.8366 171.284 77.0813 169.69 80.7954 167.565C83.979 171.107 92.4683 175.181 93.5295 175.712C92.4683 178.547 91.2303 181.204 90.1691 183.683C88.0468 188.466 86.1013 192.894 84.3327 196.614H88.7542C90.346 193.248 91.9377 189.352 93.7064 185.1C94.9444 182.266 96.0056 179.255 97.2436 176.067C98.4816 176.244 108.209 178.369 112.807 177.307C116.875 176.421 122.004 173.941 123.773 169.867C125.541 165.793 123.95 160.834 119.528 159.417C113.515 157.468 104.318 164.199 100.958 168.804C100.781 169.159 99.0122 172.17 97.7742 174.295C98.3048 173.056 98.6585 171.816 99.1891 170.399C100.073 167.742 100.958 165.085 102.019 162.251C102.373 160.834 102.903 159.417 103.257 157.999C103.787 156.582 103.964 154.988 104.318 153.571C105.202 150.206 105.733 146.663 106.44 142.943C108.74 143.829 116.875 146.663 121.297 146.309C125.541 145.955 130.847 144.538 133.323 140.641C135.799 136.921 134.915 131.784 130.847 129.659C125.188 126.647 115.107 132.139 111.039 136.213C110.862 136.39 108.209 139.755 106.794 141.526C107.148 139.401 107.502 137.275 107.678 134.973C108.386 128.596 109.093 122.219 109.624 115.843C109.801 113.894 109.978 111.946 110.155 109.997C111.039 110.352 120.589 113.894 125.365 113.54C129.609 113.186 134.915 111.769 137.391 107.872C139.867 104.152 138.983 99.0152 134.915 96.8897C129.256 93.8784 119.174 99.3695 115.107 103.443C114.753 103.798 111.039 108.403 110.155 109.643C110.685 105.392 111.039 100.964 111.746 96.8897C112.631 91.0444 113.869 85.3762 115.46 80.0623C115.814 80.2394 125.895 83.9592 130.847 83.6049C135.092 83.2506 140.398 81.8336 142.874 77.9367C145.35 74.217 144.466 69.0802 140.398 66.9547C134.738 63.9435 124.657 69.4345 120.589 73.5085C120.236 73.8628 116.345 78.8224 115.637 79.708C115.814 79.3538 115.814 78.9995 115.814 78.6453C117.583 72.9771 120.059 67.6632 122.535 62.7036C123.95 59.8695 125.541 57.2125 127.133 54.7327C128.902 55.6184 137.214 59.6924 141.636 59.8695C145.881 60.0466 151.363 59.161 154.193 55.6184C157.023 52.2529 156.669 46.939 152.955 44.4592C147.649 40.9166 137.038 45.1677 132.439 48.7103C132.262 48.8874 129.963 51.1901 128.371 52.7843C129.079 51.7215 129.786 50.4816 130.494 49.4188C133.147 45.3448 135.799 41.8022 138.276 38.791C139.69 37.0197 140.928 35.4255 142.167 34.0085C144.466 34.0085 153.486 33.6542 157.377 31.8829C161.268 30.1116 165.689 26.7462 166.573 22.3179C167.458 18.0668 164.805 13.4614 160.206 13.1072C153.839 12.3987 146.411 21.078 144.112 26.3919C143.935 26.9233 141.636 34.1856 141.636 34.1856H141.813C140.575 35.6027 139.337 37.0197 137.922 38.6139C135.446 41.6251 132.616 45.1677 129.963 49.0646C127.133 52.9614 124.303 57.3897 121.651 62.3493C118.998 67.3089 116.522 72.6228 114.576 78.291V78.4681C114.576 76.5197 114.576 71.3829 114.399 71.0287C113.692 65.3605 108.916 54.9098 102.726 53.6699C98.1279 52.7843 94.4138 56.3269 94.0601 60.7551C93.7064 65.1834 96.8899 69.7888 100.073 72.6228C103.611 75.8112 113.515 78.9995 114.399 79.1767C112.631 84.6677 111.216 90.513 110.155 96.5354C109.624 99.9009 109.093 103.443 108.563 106.809C108.563 105.215 108.563 103.798 108.563 103.621C107.855 97.9524 103.08 87.5018 96.8899 86.2619C92.2915 85.3762 88.5774 88.9188 88.2236 93.3471C87.8699 97.7753 91.0534 102.381 94.2369 105.215C97.4204 108.049 105.91 110.883 108.032 111.591C107.855 113.008 107.678 114.248 107.502 115.665C106.794 122.042 106.087 128.419 105.026 134.618C104.672 136.744 104.318 139.047 103.964 141.172C103.964 139.755 103.964 138.515 103.964 138.338C103.257 132.67 98.4816 122.219 92.2915 120.979C87.6931 120.094 83.979 123.636 83.6252 128.065C83.2715 132.493 86.455 137.098 89.6385 139.932C92.6452 142.589 100.427 145.423 103.08 146.132C102.549 148.257 102.196 150.56 101.665 152.686C101.311 154.103 100.958 155.52 100.427 156.937C99.8965 158.354 99.5428 159.771 99.0122 161.188C98.1279 163.845 97.0667 166.502 96.0056 169.159C95.2981 170.93 94.5907 172.701 93.8832 174.295C94.2369 172.17 94.7675 167.742 94.7675 167.387C94.7675 163.668 93.5295 157.468 90.8766 153.217C90.8766 152.686 90.8766 152.154 90.6997 151.623C89.9922 147.195 85.9244 144.006 81.5029 145.246C75.3127 146.84 71.4218 157.645 71.068 163.313C71.068 163.668 71.2449 167.387 71.4218 169.69C71.068 168.273 70.8912 167.033 70.5374 165.616C69.83 162.959 69.1226 160.125 68.4151 157.291C68.0614 155.874 67.5308 154.457 67.1771 153.04C66.8233 151.623 66.1159 150.206 65.7622 148.789C64.5241 145.423 63.1092 142.058 61.6944 138.869C63.9936 138.338 72.4829 136.213 75.8433 133.556C79.2037 130.899 82.7409 126.647 82.7409 122.219C82.7409 117.791 79.2037 114.071 74.6053 114.426C68.2382 115.134 62.7555 125.23 61.6944 130.721C61.6944 131.076 61.1638 135.15 61.1638 137.452C60.2795 135.504 59.3951 133.556 58.334 131.43C55.5042 125.762 52.4975 120.094 49.4909 114.426C48.6066 112.654 47.7223 110.883 46.838 109.112C47.7223 108.934 57.8034 106.632 61.5175 103.621C64.8779 100.964 68.4151 96.7125 68.4151 92.2843C68.4151 87.856 64.8779 84.1363 60.2795 84.4906C53.9124 85.1991 48.4297 95.2955 47.3685 100.787C47.3685 101.141 46.838 107.163 46.6611 108.58C44.8925 105.038 42.947 101.141 41.1784 97.421C38.7023 92.1071 36.58 86.6161 34.9882 81.3022C35.3419 81.1251 45.9536 78.8224 49.8446 75.8112C53.205 73.1542 56.7422 68.9031 56.7422 64.4749C56.7422 60.0466 53.205 56.3269 48.6066 56.6811C42.2395 57.3897 36.7568 67.4861 35.6957 72.9771C35.5188 73.3314 34.9882 79.708 34.9882 80.948C34.8113 80.5937 34.8113 80.2394 34.6345 80.0623C32.8659 74.3941 31.9816 68.5489 31.451 63.0578C31.0973 59.8695 30.9204 56.8583 30.9204 53.8471C32.8659 53.6699 42.0627 52.43 45.9536 50.1273C49.6677 48.0018 53.5587 44.1049 54.0893 39.6767C54.6199 35.2484 51.4364 31.1744 46.838 31.1744C40.4709 31.1744 33.927 40.5623 32.1584 46.0533C31.9816 46.4076 31.451 49.4188 30.9204 51.7215C30.9204 50.3045 30.9204 49.0646 30.9204 47.6475C30.9204 42.865 31.2741 38.4368 31.451 34.5399C31.6278 32.2372 31.8047 30.2888 32.1584 28.5175C33.927 27.2776 41.3552 21.9637 43.6544 18.2439C45.7768 14.5242 47.7223 9.38744 45.9536 5.13632C44.3619 1.06233 39.5866 -1.24036 35.5188 0.885201C29.8592 3.89641 28.4443 15.2327 29.3286 20.9009C29.3286 21.4323 31.6278 28.8717 31.6278 28.6946H31.8047C31.6278 30.4659 31.2741 32.4143 31.0972 34.5399C30.7435 38.4368 30.3898 42.865 30.2129 47.6475C30.0361 52.43 30.0361 57.7439 30.5667 63.235C31.0973 68.726 31.8047 74.5713 33.3965 80.4166V80.5937C32.3353 78.9995 29.5055 74.7484 29.1518 74.3941C25.4377 70.143 15.7103 63.9435 9.87383 66.4233C5.62914 68.1946 4.39111 73.3314 6.51345 77.2282C8.63579 81.1251 13.7648 83.0735 18.0095 83.782Z" fill="hsl(0deg, 0%, 90%)"/>
<path d="M127.133 53.8463C127.31 53.8463 129.079 46.4068 129.256 45.8754C129.963 40.2073 128.194 28.8709 122.535 26.0369C118.467 24.0884 113.869 26.3911 112.277 30.6422C110.685 34.8934 112.631 40.0301 114.93 43.5727C117.76 47.8239 127.133 53.8463 127.133 53.8463Z" fill="hsl(0deg, 0%, 90%)"/>
<path d="M197.347 101.139C200.354 102.379 207.782 102.202 207.782 102.202C207.782 102.202 206.19 97.4197 206.014 97.0654C204.422 93.6999 199.293 88.0318 195.225 88.7403C192.218 89.0946 190.627 92.1058 191.334 94.9399C191.865 97.7739 194.871 99.8995 197.347 101.139Z" fill="hsl(0deg, 0%, 90%)"/>
<path d="M199.823 122.397C203.007 122.929 209.551 120.98 210.081 120.803C211.143 124.523 212.558 128.242 213.972 131.785C214.857 133.911 215.918 136.036 216.802 137.985C216.272 137.099 215.741 136.39 215.564 136.213C213.088 133.379 206.721 129.305 202.83 131.077C200 132.316 199.293 135.505 200.708 138.162C202.123 140.819 205.483 142.059 208.313 142.413C211.143 142.767 216.802 141.35 218.217 140.819C218.571 141.527 218.925 142.413 219.455 143.121C221.401 146.841 223.346 150.738 225.115 154.458C225.822 155.698 226.353 157.115 226.883 158.355C226.353 157.646 225.822 156.938 225.822 156.76C223.346 153.926 216.979 149.852 213.088 151.624C210.258 152.864 209.551 156.052 210.966 158.709C212.381 161.366 215.741 162.606 218.571 162.96C221.224 163.314 226.53 162.074 228.298 161.543C228.829 162.96 229.359 164.377 229.89 165.617C230.244 166.503 230.597 167.388 230.774 168.451C230.951 169.337 231.305 170.399 231.482 171.285C231.835 173.056 232.366 175.005 232.72 176.599C233.073 177.839 233.25 178.902 233.427 180.142C232.897 178.902 231.659 176.245 231.482 176.068C229.536 172.879 223.7 167.92 219.809 168.982C216.802 169.691 215.564 172.879 216.625 175.536C217.687 178.37 220.87 180.142 223.523 180.85C226.53 181.736 232.897 180.85 233.781 180.85C234.135 182.799 234.488 184.747 234.842 186.518C235.55 190.238 235.903 193.426 236.434 196.26H239.087C238.556 193.249 238.026 189.884 237.318 185.987C236.964 184.038 236.434 181.913 235.903 179.787C236.434 179.61 239.087 178.547 241.563 177.13C243.685 179.433 249.168 182.09 249.875 182.444C249.168 184.216 248.46 185.987 247.576 187.758C246.161 190.947 244.923 193.781 243.685 196.26H246.692C247.753 193.958 248.814 191.478 249.875 188.644C250.583 186.695 251.467 184.747 252.175 182.621C252.882 182.799 259.426 184.038 262.433 183.507C265.085 182.976 268.446 181.381 269.684 178.725C270.922 176.068 269.861 172.879 267.031 171.816C263.14 170.399 256.95 175.005 254.828 178.016C254.651 178.193 253.413 180.319 252.705 181.559C253.059 180.673 253.413 179.964 253.589 179.079C254.297 177.307 254.828 175.536 255.358 173.765C255.712 172.879 255.889 171.994 256.242 170.931C256.596 170.045 256.773 168.982 256.95 168.097C257.48 165.794 258.011 163.491 258.365 161.189C259.956 161.72 265.262 163.668 268.092 163.491C270.922 163.314 274.459 162.251 276.051 159.772C277.643 157.292 277.112 153.926 274.459 152.509C270.745 150.561 264.024 154.103 261.371 156.76C261.195 156.938 259.603 159.063 258.542 160.126C258.718 158.709 259.072 157.292 259.249 155.875C259.78 151.801 260.133 147.55 260.487 143.299C260.664 142.059 260.841 140.642 260.841 139.402C261.371 139.579 267.738 142.059 270.922 141.704C273.752 141.527 277.289 140.464 278.881 137.985C280.472 135.505 279.942 132.139 277.289 130.722C273.575 128.774 266.854 132.316 264.201 134.973C264.024 135.151 261.548 138.162 261.018 139.047C261.371 136.213 261.725 133.379 262.079 130.545C262.609 126.648 263.494 122.929 264.555 119.386C264.732 119.563 271.453 122.043 274.636 121.689C277.466 121.512 281.003 120.449 282.595 117.969C284.187 115.489 283.656 112.124 281.003 110.707C277.289 108.758 270.568 112.301 267.915 114.958C267.738 115.135 265.085 118.5 264.732 119.032C264.732 118.855 264.909 118.677 264.909 118.323C266.147 114.603 267.562 111.061 269.33 107.873C270.214 105.924 271.276 104.33 272.337 102.559C273.575 103.09 279.058 105.747 281.887 105.924C284.717 106.101 288.254 105.393 290.2 103.09C291.968 100.787 291.792 97.4218 289.316 95.8277C285.778 93.525 278.881 96.3591 275.874 98.6618C275.697 98.8389 274.282 100.256 273.221 101.319C273.752 100.61 274.105 99.7245 274.636 99.016C276.405 96.3591 278.173 94.0564 279.765 92.1079C280.649 91.0452 281.534 89.9824 282.241 88.9196C283.656 88.9196 289.669 88.7425 292.145 87.5026C294.621 86.2627 297.628 84.1371 298.159 81.1259C298.689 78.2918 297.097 75.2806 294.091 75.1035C289.846 74.5721 284.894 80.4174 283.479 83.7828C283.302 84.1371 281.887 88.9196 281.887 88.9196C281.887 88.9196 281.887 88.9196 282.064 88.9196C281.357 89.8053 280.472 90.868 279.588 91.9308C277.996 93.8792 276.051 96.1819 274.282 98.8389C272.514 101.496 270.568 104.33 268.8 107.518C267.031 110.707 265.439 114.249 264.201 117.969V118.146C264.201 116.906 264.201 113.541 264.201 113.186C263.671 109.467 260.664 102.559 256.419 101.85C253.413 101.319 250.937 103.621 250.76 106.455C250.583 109.467 252.705 112.301 254.651 114.249C256.95 116.375 263.494 118.323 264.024 118.5C262.786 122.22 261.902 125.94 261.195 129.837C260.841 132.139 260.487 134.265 260.133 136.568C260.133 135.505 260.133 134.619 260.133 134.442C259.603 130.722 256.596 123.814 252.351 123.106C249.345 122.574 246.869 124.877 246.692 127.711C246.515 130.722 248.637 133.556 250.583 135.505C252.705 137.453 258.188 139.225 259.603 139.756C259.426 140.642 259.426 141.527 259.249 142.413C258.718 146.664 258.188 150.738 257.657 154.989C257.48 156.406 257.127 157.823 256.95 159.24C256.95 158.355 256.95 157.469 256.95 157.469C256.419 153.749 253.413 146.841 249.168 146.133C246.161 145.601 243.685 147.904 243.508 150.738C243.331 153.749 245.454 156.583 247.399 158.532C249.345 160.303 254.474 162.074 256.242 162.606C255.889 164.023 255.712 165.44 255.358 166.857C255.004 167.742 254.827 168.805 254.651 169.691C254.297 170.577 254.12 171.462 253.766 172.525C253.059 174.296 252.528 176.068 251.821 177.662C251.29 178.902 250.937 179.964 250.406 181.027C250.583 179.61 250.937 176.776 250.937 176.599C250.937 174.119 250.052 170.045 248.284 167.211C248.284 166.857 248.284 166.503 248.284 166.148C247.753 163.314 245.1 161.189 242.27 161.897C238.202 162.96 235.726 170.045 235.55 173.765C235.55 173.942 235.726 176.422 235.726 177.839C235.55 176.953 235.373 176.068 235.196 175.182C234.842 173.411 234.312 171.639 233.781 169.691C233.427 168.805 233.25 167.92 232.897 166.857C232.72 165.971 232.189 164.908 231.835 164.023C230.951 161.897 230.067 159.594 229.183 157.469C230.774 157.115 236.257 155.698 238.556 153.926C240.855 152.155 243.155 149.498 243.155 146.487C243.155 143.653 240.855 140.996 237.849 141.35C233.604 141.881 230.067 148.435 229.359 152.155C229.359 152.332 229.006 154.989 229.006 156.583C228.475 155.343 227.768 153.926 227.237 152.686C225.292 148.967 223.346 145.247 221.401 141.527C220.87 140.464 220.163 139.225 219.632 138.162C220.163 137.985 226.883 136.568 229.359 134.619C231.659 132.848 233.958 130.191 233.958 127.18C233.958 124.346 231.659 121.689 228.652 122.043C224.407 122.574 220.87 129.128 220.163 132.848C220.163 133.202 219.809 136.922 219.632 137.985C218.394 135.505 216.979 132.848 215.918 130.368C214.326 126.825 212.911 123.283 211.85 119.74C212.027 119.74 219.101 118.146 221.577 116.198C223.877 114.426 226.176 111.769 226.176 108.758C226.176 105.924 223.877 103.267 220.87 103.621C216.625 104.153 213.088 110.707 212.381 114.426C212.381 114.781 212.027 118.855 211.85 119.563C211.85 119.386 211.673 119.209 211.673 118.855C210.612 115.135 209.905 111.238 209.551 107.695C209.374 105.57 209.197 103.621 209.197 101.673C210.435 101.496 216.625 100.787 219.101 99.1931C221.577 97.7761 224.054 95.2963 224.407 92.2851C224.761 89.451 222.639 86.6169 219.632 86.6169C215.387 86.6169 211.143 92.8165 209.905 96.3591C209.905 96.5362 209.374 98.6618 209.197 100.079C209.197 99.1931 209.197 98.3075 209.197 97.4218C209.197 94.2335 209.374 91.3994 209.551 88.7425C209.728 87.3254 209.905 85.9084 209.905 84.6685C211.143 83.7828 215.918 80.4174 217.51 77.9375C218.925 75.6349 220.163 72.0923 219.101 69.4353C218.04 66.7783 215.034 65.1842 212.204 66.6012C208.49 68.5496 207.429 75.9891 208.136 79.7088C208.136 80.0631 209.551 84.8456 209.728 84.8456C209.551 86.0855 209.374 87.3254 209.197 88.7425C209.02 91.3994 208.667 94.2335 208.667 97.4218C208.667 100.61 208.667 103.976 208.843 107.695C209.197 111.415 209.728 115.135 210.789 119.032C210.789 119.032 210.789 119.032 210.789 119.209C210.081 118.146 208.136 115.312 207.959 115.135C205.483 112.301 199.116 108.227 195.225 109.998C192.395 111.238 191.688 114.426 193.103 117.083C193.81 120.626 197.171 122.043 199.823 122.397Z" fill="hsl(0deg, 0%, 90%)"/>
<path d="M271.629 102.735C271.629 102.735 273.044 97.775 273.044 97.5978C273.575 93.8781 272.337 86.4386 268.623 84.6673C265.97 83.4274 262.786 85.0216 261.902 87.6786C260.841 90.5126 262.256 93.8781 263.67 96.1808C265.439 98.8377 271.629 102.735 271.629 102.735Z" fill="hsl(0deg, 0%, 90%)"/>
<path d="M475.197 107.519C478.027 108.759 484.924 108.582 484.924 108.582C484.924 108.582 483.509 104.154 483.333 103.8C481.918 100.611 477.142 95.4746 473.251 96.006C470.422 96.3602 469.007 99.1943 469.537 101.851C470.068 104.508 472.721 106.634 475.197 107.519Z" fill="hsl(0deg, 0%, 90%)"/>
<path d="M477.496 127.534C480.326 127.889 486.516 126.117 487.047 126.117C487.931 129.483 489.346 133.025 490.761 136.391C491.645 138.339 492.53 140.288 493.414 142.236C492.883 141.35 492.353 140.642 492.353 140.642C490.054 137.985 484.04 134.265 480.503 135.859C477.85 136.922 477.143 140.111 478.381 142.413C479.796 144.893 482.802 145.956 485.455 146.487C488.108 146.841 493.237 145.424 494.652 145.07C495.006 145.779 495.359 146.487 495.713 147.196C497.482 150.738 499.25 154.281 500.842 157.824C501.373 159.063 501.903 160.303 502.434 161.543C501.903 160.835 501.55 160.126 501.373 160.126C499.074 157.469 493.06 153.75 489.523 155.344C486.87 156.406 486.163 159.595 487.401 161.898C488.816 164.377 491.822 165.44 494.475 165.971C496.951 166.326 501.903 165.086 503.495 164.554C504.026 165.794 504.556 167.034 504.91 168.451C505.264 169.337 505.441 170.223 505.794 171.108C505.971 171.994 506.325 172.88 506.502 173.765C506.856 175.359 507.386 177.131 507.74 178.725C507.917 179.788 508.27 181.028 508.447 182.09C507.917 180.85 506.679 178.548 506.679 178.193C504.91 175.182 499.427 170.577 495.713 171.64C493.06 172.348 491.822 175.359 492.707 177.839C493.591 180.496 496.598 182.09 499.074 182.799C501.727 183.684 507.917 182.799 508.624 182.799C508.978 184.57 509.332 186.341 509.685 188.113C510.216 191.478 510.746 194.667 511.1 197.324H513.576C513.223 194.489 512.515 191.301 511.808 187.758C511.454 185.987 511.1 184.039 510.57 181.913C511.1 181.736 513.576 180.673 515.875 179.433C517.821 181.559 522.95 184.216 523.657 184.393C522.95 186.164 522.243 187.758 521.535 189.353C520.297 192.364 519.059 195.021 517.998 197.324H520.828C521.712 195.198 522.773 192.895 523.834 190.238C524.542 188.467 525.249 186.696 525.957 184.747C526.664 184.924 532.677 186.164 535.507 185.456C537.983 184.924 541.167 183.507 542.228 180.85C543.289 178.371 542.405 175.359 539.752 174.474C536.038 173.234 530.378 177.485 528.256 180.319C528.079 180.496 527.018 182.445 526.31 183.684C526.664 182.976 526.841 182.09 527.195 181.382C527.725 179.788 528.256 178.193 528.963 176.422C529.14 175.537 529.494 174.651 529.671 173.765C530.024 172.88 530.201 171.994 530.378 171.108C530.909 168.983 531.262 166.857 531.616 164.554C533.031 165.086 537.983 166.857 540.636 166.68C543.289 166.503 546.473 165.617 548.064 163.315C549.479 161.012 548.949 157.824 546.473 156.584C542.935 154.812 536.745 158.178 534.269 160.48C534.092 160.658 532.5 162.606 531.616 163.669C531.793 162.429 531.97 161.012 532.147 159.772C532.677 155.875 533.031 151.978 533.385 148.081C533.562 146.841 533.562 145.602 533.739 144.539C534.269 144.716 540.106 147.019 543.112 146.664C545.765 146.487 548.949 145.602 550.54 143.299C551.955 140.996 551.425 137.808 548.949 136.568C545.411 134.797 539.221 138.162 536.745 140.465C536.568 140.642 534.269 143.476 533.739 144.185C534.092 141.528 534.269 138.871 534.8 136.391C535.33 132.848 536.038 129.306 537.099 126.117C537.276 126.117 543.466 128.597 546.473 128.42C549.126 128.243 552.309 127.357 553.901 125.054C555.316 122.752 554.785 119.563 552.309 118.324C548.772 116.552 542.582 119.918 540.106 122.22C539.929 122.398 537.453 125.409 537.099 126.117C537.099 125.94 537.276 125.763 537.276 125.586C538.337 122.043 539.752 118.855 541.344 115.844C542.228 114.072 543.112 112.478 544.173 110.884C545.235 111.415 550.364 113.895 553.016 114.072C555.669 114.25 559.03 113.541 560.622 111.415C562.39 109.29 562.213 106.102 559.737 104.507C556.554 102.382 550.01 104.862 547.18 107.164C547.003 107.341 545.588 108.581 544.704 109.644C545.058 108.936 545.588 108.227 545.942 107.519C547.534 105.039 549.302 102.913 550.717 100.965C551.602 99.902 552.309 99.0164 553.016 98.1307C554.431 98.1307 559.914 97.9536 562.39 96.8908C564.689 95.828 567.519 93.7025 568.05 91.0455C568.58 88.3886 566.989 85.7316 564.159 85.3774C560.268 85.0231 555.669 90.337 554.255 93.5253C554.078 93.8796 552.663 98.3078 552.84 98.3078C552.132 99.1935 551.248 100.079 550.54 100.965C548.949 102.913 547.357 105.039 545.588 107.341C543.82 109.821 542.051 112.478 540.459 115.489C538.868 118.501 537.276 121.689 536.038 125.232C536.038 125.232 536.038 125.232 536.038 125.409C536.038 124.346 536.038 120.98 536.038 120.803C535.507 117.261 532.677 110.884 528.786 110.176C525.957 109.644 523.657 111.77 523.481 114.604C523.304 117.438 525.249 120.095 527.195 121.866C529.317 123.815 535.507 125.763 535.861 125.94C534.8 129.306 533.915 132.848 533.208 136.568C532.854 138.693 532.501 140.819 532.324 142.945C532.324 141.882 532.324 140.996 532.324 140.996C531.793 137.454 528.963 131.077 525.072 130.368C522.243 129.837 519.943 131.963 519.766 134.797C519.59 137.631 521.535 140.288 523.481 142.059C525.426 143.83 530.555 145.602 531.97 145.956C531.793 146.841 531.793 147.55 531.616 148.436C531.086 152.332 530.732 156.229 530.201 160.126C530.024 161.543 529.848 162.783 529.494 164.2C529.494 163.315 529.494 162.606 529.494 162.429C528.963 158.886 526.133 152.51 522.243 151.801C519.413 151.27 517.114 153.395 516.937 156.229C516.76 159.063 518.705 161.72 520.651 163.492C522.596 165.086 527.195 166.857 528.963 167.389C528.61 168.806 528.433 170.045 528.079 171.463C527.902 172.348 527.725 173.234 527.371 174.119C527.018 175.005 526.841 175.891 526.487 176.599C525.957 178.193 525.249 179.965 524.719 181.382C524.365 182.445 523.834 183.507 523.481 184.57C523.657 183.153 524.011 180.673 524.011 180.319C524.011 178.016 523.304 174.297 521.535 171.64C521.535 171.285 521.535 170.931 521.535 170.577C521.181 167.92 518.528 165.971 515.875 166.68C512.161 167.743 509.685 174.297 509.508 177.839C509.508 178.016 509.685 180.319 509.685 181.736C509.508 180.85 509.332 180.142 509.155 179.256C508.801 177.662 508.27 175.891 507.917 174.119C507.74 173.234 507.386 172.348 507.209 171.463C507.032 170.577 506.679 169.691 506.325 168.806C505.617 166.68 504.733 164.732 503.849 162.783C505.264 162.429 510.393 161.189 512.515 159.595C514.637 158.001 516.76 155.344 516.76 152.687C516.76 150.03 514.637 147.727 511.808 147.904C507.917 148.258 504.556 154.458 503.849 158.001C503.849 158.178 503.495 160.658 503.495 162.075C502.965 160.835 502.434 159.595 501.727 158.355C499.958 154.812 498.189 151.447 496.244 147.904C495.713 146.841 495.183 145.779 494.652 144.716C495.183 144.539 501.373 143.122 503.672 141.35C505.794 139.756 507.917 137.099 507.917 134.442C507.917 131.785 505.794 129.483 502.965 129.66C499.074 130.014 495.713 136.214 495.006 139.756C495.006 139.933 494.652 143.653 494.652 144.539C493.414 142.236 492.176 139.756 491.115 137.454C489.7 134.265 488.285 130.9 487.224 127.534C487.401 127.534 493.945 125.94 496.244 124.169C498.366 122.575 500.489 119.918 500.489 117.261C500.489 114.604 498.366 112.301 495.536 112.478C491.645 112.833 488.285 119.032 487.578 122.575C487.578 122.929 487.224 126.649 487.224 127.357C487.224 127.18 487.047 127.003 487.047 126.826C485.986 123.283 485.455 119.741 485.101 116.375C484.925 114.427 484.748 112.655 484.748 110.707C485.986 110.53 491.645 109.821 493.945 108.404C496.244 106.987 498.543 104.685 498.897 102.028C499.25 99.3706 497.305 96.7137 494.475 96.7137C490.584 96.7137 486.516 102.559 485.455 105.747C485.455 105.924 484.925 107.873 484.748 109.29C484.748 108.404 484.748 107.696 484.748 106.81C484.748 103.799 484.925 101.142 485.101 98.8392C485.278 97.4222 485.278 96.1823 485.455 95.1195C486.516 94.411 491.115 91.2226 492.53 88.92C493.945 86.6173 495.006 83.4289 493.945 80.9491C492.883 78.4693 490.054 77.0522 487.578 78.2922C484.04 80.0635 483.156 87.1486 483.687 90.5141C483.687 90.8684 485.101 95.2966 485.101 95.2966C484.925 96.3594 484.748 97.5993 484.748 98.8392C484.571 101.319 484.217 103.976 484.217 106.987C484.217 109.998 484.217 113.187 484.394 116.552C484.748 119.918 485.102 123.46 486.163 127.18C486.163 127.18 486.163 127.18 486.163 127.357C485.632 126.472 483.687 123.815 483.51 123.637C481.211 120.98 475.197 117.261 471.66 118.855C469.007 119.918 468.3 123.106 469.538 125.409C471.837 125.94 475.02 127.003 477.496 127.534Z" fill="hsl(0deg, 0%, 90%)"/>
<path d="M544.35 109.112C544.35 109.112 545.588 104.507 545.588 104.33C546.119 100.787 544.881 93.8791 541.52 92.2849C539.044 91.045 536.215 92.4621 535.153 95.119C534.269 97.776 535.33 100.964 536.745 103.09C538.691 105.393 544.35 109.112 544.35 109.112Z" fill="hsl(0deg, 0%, 90%)"/>
<path d="M616.51 51.3682C621.108 53.3166 632.251 53.1395 632.251 53.1395C632.428 53.1395 629.775 45.8771 629.598 45.3458C627.122 40.209 619.34 31.7067 613.15 32.5924C608.551 33.1238 606.075 37.7292 607.136 41.9803C608.021 46.4085 612.619 49.5969 616.51 51.3682Z" fill="hsl(0deg, 0%, 90%)"/>
<path d="M620.224 83.7818C625 84.4903 634.904 81.6563 635.788 81.302C637.38 86.9702 639.502 92.4612 641.802 98.1294C643.216 101.318 644.631 104.506 646.223 107.694C645.339 106.277 644.454 105.215 644.278 105.037C640.564 100.786 630.836 94.5868 625 97.0666C620.755 98.8379 619.517 103.975 621.639 107.872C623.762 111.768 629.068 113.717 633.135 114.425C637.38 115.134 645.869 112.831 648.169 112.123C648.699 113.363 649.407 114.602 649.937 115.665C652.767 121.511 655.774 127.179 658.427 132.847C659.311 134.795 660.195 136.921 661.079 138.869C660.195 137.629 659.665 136.744 659.488 136.567C655.774 132.315 646.046 126.116 640.21 128.596C635.965 130.367 634.727 135.504 636.849 139.401C638.972 143.298 644.278 145.246 648.345 145.954C652.413 146.486 660.372 144.537 663.025 143.829C663.909 145.954 664.617 148.08 665.324 150.028C665.855 151.445 666.385 152.863 666.739 154.28C667.093 155.697 667.447 157.114 667.977 158.531C668.685 161.188 669.392 164.022 669.923 166.679C670.276 168.45 670.63 170.398 670.984 172.17C670.099 170.221 668.154 166.324 667.977 165.97C664.97 161.188 656.304 153.571 650.114 155.165C645.693 156.228 643.747 161.188 645.162 165.262C646.754 169.513 651.529 172.17 655.597 173.41C660.018 174.827 669.923 173.587 671.161 173.41C671.691 176.421 672.222 179.255 672.752 181.912C673.814 187.403 674.521 192.54 675.052 196.791H679.119C678.412 192.363 677.528 187.049 676.29 181.203C675.759 178.192 675.052 175.004 674.344 171.638C675.052 171.284 679.296 169.69 683.01 167.564C686.194 171.107 694.683 175.181 695.744 175.712C694.683 178.546 693.445 181.203 692.384 183.683C690.262 188.466 688.316 192.894 686.548 196.614H690.969C692.561 193.248 694.153 189.351 695.921 185.1C697.159 182.266 698.22 179.255 699.459 176.067C700.697 176.244 710.424 178.369 715.022 177.306C719.09 176.421 724.219 173.941 725.988 169.867C727.756 165.793 726.165 160.833 721.743 159.416C715.73 157.468 706.533 164.199 703.173 168.804C702.996 169.159 701.227 172.17 699.989 174.295C700.52 173.055 700.873 171.815 701.404 170.398C702.288 167.741 703.173 165.085 704.234 162.25C704.587 160.833 705.118 159.416 705.472 157.999C706.002 156.582 706.179 154.988 706.533 153.571C707.417 150.206 707.948 146.663 708.655 142.943C710.955 143.829 719.09 146.663 723.512 146.309C727.756 145.954 733.062 144.537 735.538 140.641C738.014 136.921 737.13 131.784 733.062 129.658C727.403 126.647 717.322 132.138 713.254 136.212C713.077 136.389 710.424 139.755 709.009 141.526C709.363 139.401 709.716 137.275 709.893 134.972C710.601 128.596 711.308 122.219 711.839 115.842C712.016 113.894 712.193 111.945 712.369 109.997C713.254 110.351 722.804 113.894 727.58 113.54C731.824 113.185 737.13 111.768 739.606 107.872C742.082 104.152 741.198 99.015 737.13 96.8895C731.47 93.8782 721.389 99.3693 717.322 103.443C716.968 103.798 713.254 108.403 712.369 109.643C712.9 105.392 713.254 100.963 713.961 96.8895C714.845 91.0442 716.084 85.376 717.675 80.0621C718.029 80.2392 728.11 83.959 733.062 83.6047C737.307 83.2504 742.613 81.8334 745.089 77.9365C747.565 74.2168 746.681 69.08 742.613 66.9545C736.953 63.9433 726.872 69.4343 722.804 73.5083C722.451 73.8625 718.56 78.8222 717.852 79.7078C718.029 79.3536 718.029 78.9993 718.029 78.6451C719.798 72.9769 722.274 67.663 724.75 62.7034C726.165 59.8693 727.756 57.2123 729.348 54.7325C731.117 55.6181 739.429 59.6921 743.851 59.8693C748.095 60.0464 753.578 59.1607 756.408 55.6181C759.238 52.2527 758.884 46.9388 755.17 44.459C749.864 40.9164 739.252 45.1675 734.654 48.7101C734.477 48.8872 732.178 51.1899 730.586 52.7841C731.294 51.7213 732.001 50.4814 732.709 49.4186C735.361 45.3446 738.014 41.802 740.49 38.7908C741.905 37.0195 743.143 35.4253 744.381 34.0083C746.681 34.0083 755.701 33.654 759.592 31.8827C763.482 30.1114 767.904 26.746 768.788 22.3177C769.673 18.0666 767.02 13.4612 762.421 13.1069C756.054 12.3984 748.626 21.0778 746.327 26.3917C746.15 26.9231 743.851 34.1854 743.851 34.1854H744.028C742.79 35.6025 741.552 37.0195 740.137 38.6137C737.661 41.6249 734.831 45.1675 732.178 49.0643C729.348 52.9612 726.518 57.3895 723.865 62.3491C721.212 67.3087 718.736 72.6226 716.791 78.2908V78.4679C716.791 76.5195 716.791 71.3827 716.614 71.0285C715.907 65.3603 711.131 54.9096 704.941 53.6697C700.343 52.7841 696.629 56.3267 696.275 60.7549C695.921 65.1832 699.105 69.7886 702.288 72.6226C705.826 75.811 715.73 78.9993 716.614 79.1764C714.845 84.6675 713.431 90.5128 712.369 96.5352C711.839 99.9007 711.308 103.443 710.778 106.809C710.778 105.215 710.778 103.798 710.778 103.62C710.07 97.9522 705.295 87.5016 699.105 86.2616C694.506 85.376 690.792 88.9186 690.439 93.3468C690.085 97.7751 693.268 102.38 696.452 105.215C699.635 108.049 708.125 110.883 710.247 111.591C710.07 113.008 709.893 114.248 709.716 115.665C709.009 122.042 708.302 128.419 707.24 134.618C706.887 136.744 706.533 139.046 706.179 141.172C706.179 139.755 706.179 138.515 706.179 138.338C705.472 132.67 700.697 122.219 694.506 120.979C689.908 120.093 686.194 123.636 685.84 128.064C685.486 132.493 688.67 137.098 691.853 139.932C694.86 142.589 702.642 145.423 705.295 146.132C704.764 148.257 704.411 150.56 703.88 152.685C703.526 154.102 703.173 155.519 702.642 156.937C702.111 158.354 701.758 159.771 701.227 161.188C700.343 163.845 699.282 166.502 698.22 169.158C697.513 170.93 696.806 172.701 696.098 174.295C696.452 172.17 696.982 167.741 696.982 167.387C696.982 163.667 695.744 157.468 693.091 153.217C693.091 152.685 693.091 152.154 692.915 151.623C692.207 147.194 688.139 144.006 683.718 145.246C677.528 146.84 673.637 157.645 673.283 163.313C673.283 163.667 673.46 167.387 673.637 169.69C673.283 168.273 673.106 167.033 672.752 165.616C672.045 162.959 671.337 160.125 670.63 157.291C670.276 155.874 669.746 154.457 669.392 153.04C669.038 151.623 668.331 150.206 667.977 148.789C666.739 145.423 665.324 142.058 663.909 138.869C666.208 138.338 674.698 136.212 678.058 133.555C681.419 130.898 684.956 126.647 684.956 122.219C684.956 117.791 681.419 114.071 676.82 114.425C670.453 115.134 664.97 125.23 663.909 130.721C663.909 131.076 663.379 135.15 663.379 137.452C662.494 135.504 661.61 133.555 660.549 131.43C657.719 125.762 654.712 120.093 651.706 114.425C650.822 112.654 649.937 110.883 649.053 109.111C649.937 108.934 660.018 106.632 663.732 103.62C667.093 100.963 670.63 96.7123 670.63 92.2841C670.63 87.8558 667.093 84.1361 662.494 84.4903C656.127 85.1989 650.645 95.2953 649.583 100.786C649.583 101.141 649.053 107.163 648.876 108.58C646.931 104.683 644.985 100.963 643.216 97.0666C640.74 91.7527 638.618 86.2616 637.026 80.9477C637.38 80.7706 647.992 78.4679 651.883 75.4567C655.243 72.7998 658.78 68.5486 658.78 64.1204C658.78 59.6921 655.243 55.9724 650.645 56.3267C644.278 57.0352 638.795 67.1316 637.734 72.6226C637.557 72.9769 637.026 79.3536 637.026 80.5935C636.849 80.2392 636.849 79.885 636.673 79.7078C634.904 74.0397 634.02 68.1944 633.489 62.7034C633.135 59.515 632.958 56.5038 632.958 53.4926C634.904 53.3155 644.101 52.0756 647.992 49.7729C651.706 47.6473 655.597 43.7504 656.127 39.3222C656.658 34.8939 653.474 30.8199 648.876 30.8199C642.509 30.8199 635.965 40.2078 634.196 45.6989C634.02 46.0531 633.489 49.0643 632.958 51.367C632.958 49.95 632.958 48.7101 632.958 47.293C632.958 42.5105 633.312 38.0823 633.489 34.1854C633.666 31.8827 633.843 29.9343 634.196 28.163C635.965 26.9231 643.393 21.6092 645.693 17.8895C647.815 14.1697 649.76 9.03295 647.992 4.78183C646.4 0.707839 641.625 -1.59485 637.557 0.530709C631.897 3.54192 630.482 14.8782 631.367 20.5464C631.367 21.0778 633.666 28.5173 633.666 28.3401H633.843C633.666 30.1114 633.312 32.0599 633.135 34.1854C632.782 38.0823 632.428 42.5105 632.251 47.293C632.074 52.0756 632.074 57.3895 632.605 62.8805C633.135 68.3715 633.843 74.2168 635.435 80.0621V80.2392C634.373 78.6451 631.544 74.3939 631.19 74.0397C627.476 69.7886 617.748 63.589 611.912 66.0688C607.667 67.8401 606.429 72.9769 608.552 76.8738C610.851 81.1249 616.157 83.0733 620.224 83.7818Z" fill="hsl(0deg, 0%, 90%)"/>
<path d="M729.525 53.8458C729.702 53.8458 731.47 46.4063 731.647 45.8749C732.354 40.2068 730.586 28.8705 724.926 26.0364C720.858 24.0879 716.26 26.3906 714.668 30.6418C713.076 34.8929 715.022 40.0296 717.321 43.5722C719.974 47.8234 729.525 53.8458 729.525 53.8458Z" fill="hsl(0deg, 0%, 90%)"/>
<path d="M1020.64 51.3677C1025.24 53.3161 1036.38 53.139 1036.38 53.139C1036.56 53.139 1033.9 45.8767 1033.73 45.3453C1031.25 40.2085 1023.47 31.7063 1017.28 32.5919C1012.68 33.1233 1010.2 37.7287 1011.27 41.9798C1012.33 46.408 1016.75 49.5964 1020.64 51.3677Z" fill="hsl(0deg, 0%, 90%)"/>
<path d="M1024.53 83.7818C1029.31 84.4903 1039.21 81.6563 1040.09 81.302C1041.69 86.9702 1043.81 92.4612 1046.11 98.1294C1047.52 101.318 1048.94 104.506 1050.53 107.694C1049.64 106.277 1048.76 105.215 1048.58 105.037C1044.87 100.786 1035.14 94.5868 1029.31 97.0666C1025.06 98.8379 1023.82 103.975 1025.95 107.872C1028.07 111.768 1033.37 113.717 1037.44 114.425C1041.69 115.134 1050.18 112.831 1052.47 112.123C1053.01 113.363 1053.71 114.602 1054.24 115.665C1057.07 121.511 1060.08 127.179 1062.73 132.847C1063.62 134.795 1064.5 136.921 1065.39 138.869C1064.5 137.629 1063.97 136.744 1063.79 136.567C1060.08 132.315 1050.35 126.116 1044.52 128.596C1040.27 130.367 1039.03 135.504 1041.16 139.401C1043.28 143.298 1048.58 145.246 1052.65 145.954C1056.72 146.486 1064.68 144.537 1067.33 143.829C1068.22 145.954 1068.92 148.08 1069.63 150.028C1070.16 151.445 1070.69 152.863 1071.05 154.28C1071.4 155.697 1071.75 157.114 1072.28 158.531C1072.99 161.188 1073.7 164.022 1074.23 166.679C1074.58 168.45 1074.94 170.398 1075.29 172.17C1074.41 170.221 1072.46 166.324 1072.28 165.97C1069.28 161.188 1060.61 153.571 1054.42 155.165C1050 156.228 1048.05 161.188 1049.47 165.262C1051.06 169.513 1055.84 172.17 1059.9 173.41C1064.32 174.827 1074.23 173.587 1075.47 173.41C1076 176.421 1076.53 179.255 1077.06 181.912C1078.12 187.403 1078.83 192.54 1079.36 196.791H1083.43C1082.72 192.363 1081.83 187.049 1080.6 181.203C1080.07 178.192 1079.36 175.004 1078.65 171.638C1079.36 171.284 1083.6 169.69 1087.32 167.564C1090.5 171.107 1098.99 175.181 1100.05 175.712C1098.99 178.546 1097.75 181.203 1096.69 183.683C1094.57 188.466 1092.62 192.894 1090.85 196.614H1095.28C1096.87 193.248 1098.46 189.351 1100.23 185.1C1101.47 182.266 1102.53 179.255 1103.76 176.067C1105 176.244 1114.73 178.369 1119.33 177.306C1123.4 176.421 1128.53 173.941 1130.29 169.867C1132.06 165.793 1130.47 160.833 1126.05 159.416C1120.04 157.468 1110.84 164.199 1107.48 168.804C1107.3 169.159 1105.53 172.17 1104.3 174.295C1104.83 173.055 1105.18 171.815 1105.71 170.398C1106.59 167.741 1107.48 165.085 1108.54 162.25C1108.89 160.833 1109.42 159.416 1109.78 157.999C1110.31 156.582 1110.49 154.988 1110.84 153.571C1111.72 150.206 1112.25 146.663 1112.96 142.943C1115.26 143.829 1123.4 146.663 1127.82 146.309C1132.06 145.954 1137.37 144.537 1139.84 140.641C1142.32 136.921 1141.44 131.784 1137.37 129.658C1131.71 126.647 1121.63 132.138 1117.56 136.212C1117.38 136.389 1114.73 139.755 1113.32 141.526C1113.67 139.401 1114.02 137.275 1114.2 134.972C1114.91 128.596 1115.61 122.219 1116.14 115.842C1116.32 113.894 1116.5 111.945 1116.68 109.997C1117.56 110.351 1127.11 113.894 1131.89 113.54C1136.13 113.185 1141.44 111.768 1143.91 107.872C1146.39 104.152 1145.5 99.015 1141.44 96.8895C1135.78 93.8782 1125.7 99.3693 1121.63 103.443C1121.27 103.798 1117.56 108.403 1116.68 109.643C1117.21 105.392 1117.56 100.963 1118.27 96.8895C1119.15 91.0442 1120.39 85.376 1121.98 80.0621C1122.34 80.2392 1132.42 83.959 1137.37 83.6047C1141.61 83.2504 1146.92 81.8334 1149.39 77.9365C1151.87 74.2168 1150.99 69.08 1146.92 66.9545C1141.26 63.9433 1131.18 69.4343 1127.11 73.5083C1126.76 73.8625 1122.87 78.8222 1122.16 79.7078C1122.34 79.3536 1122.34 78.9993 1122.34 78.6451C1124.1 72.9769 1126.58 67.663 1129.06 62.7034C1130.47 59.8693 1132.06 57.2123 1133.65 54.7325C1135.42 55.6181 1143.74 59.6921 1148.16 59.8693C1152.4 60.0464 1157.88 59.1607 1160.71 55.6181C1163.54 52.2527 1163.19 46.9388 1159.48 44.459C1154.17 40.9164 1143.56 45.1675 1138.96 48.7101C1138.78 48.8872 1136.48 51.1899 1134.89 52.7841C1135.6 51.7213 1136.31 50.4814 1137.01 49.4186C1139.67 45.3446 1142.32 41.802 1144.8 38.7908C1146.21 37.0195 1147.45 35.4253 1148.69 34.0083C1150.99 34.0083 1160.01 33.654 1163.9 31.8827C1167.79 30.1114 1172.21 26.746 1173.09 22.3177C1173.98 18.0666 1171.33 13.4612 1166.73 13.1069C1160.36 12.3984 1152.93 21.0778 1150.63 26.3917C1150.46 26.9231 1148.16 34.1854 1148.16 34.1854H1148.33C1147.1 35.6025 1145.86 37.0195 1144.44 38.6137C1141.97 41.6249 1139.14 45.1675 1136.48 49.0643C1133.65 52.9612 1130.82 57.3895 1128.17 62.3491C1125.52 67.3087 1123.04 72.6226 1121.1 78.2908V78.4679C1121.1 76.5195 1121.1 71.3827 1120.92 71.0285C1120.21 65.3603 1115.44 54.9096 1109.25 53.6697C1104.65 52.7841 1100.93 56.3267 1100.58 60.7549C1100.23 65.1832 1103.41 69.7886 1106.59 72.6226C1110.13 75.811 1120.04 78.9993 1120.92 79.1764C1119.15 84.6675 1117.74 90.5128 1116.68 96.5352C1116.14 99.9007 1115.61 103.443 1115.08 106.809C1115.08 105.215 1115.08 103.798 1115.08 103.62C1114.38 97.9522 1109.6 87.5016 1103.41 86.2616C1098.81 85.376 1095.1 88.9186 1094.74 93.3468C1094.39 97.7751 1097.57 102.38 1100.76 105.215C1103.94 108.049 1112.43 110.883 1114.55 111.591C1114.38 113.008 1114.2 114.248 1114.02 115.665C1113.32 122.042 1112.61 128.419 1111.55 134.618C1111.19 136.744 1110.84 139.046 1110.49 141.172C1110.49 139.755 1110.49 138.515 1110.49 138.338C1109.78 132.67 1105 122.219 1098.81 120.979C1094.21 120.093 1090.5 123.636 1090.15 128.064C1089.79 132.493 1092.98 137.098 1096.16 139.932C1099.17 142.589 1106.95 145.423 1109.6 146.132C1109.07 148.257 1108.72 150.56 1108.19 152.685C1107.83 154.102 1107.48 155.519 1106.95 156.937C1106.42 158.354 1106.06 159.771 1105.53 161.188C1104.65 163.845 1103.59 166.502 1102.53 169.158C1101.82 170.93 1101.11 172.701 1100.4 174.295C1100.76 172.17 1101.29 167.741 1101.29 167.387C1101.29 163.667 1100.05 157.468 1097.4 153.217C1097.4 152.685 1097.4 152.154 1097.22 151.623C1096.51 147.194 1092.45 144.006 1088.02 145.246C1081.83 146.84 1077.94 157.645 1077.59 163.313C1077.59 163.667 1077.77 167.387 1077.94 169.69C1077.59 168.273 1077.41 167.033 1077.06 165.616C1076.35 162.959 1075.64 160.125 1074.94 157.291C1074.58 155.874 1074.05 154.457 1073.7 153.04C1073.34 151.623 1072.64 150.206 1072.28 148.789C1071.05 145.423 1069.63 142.058 1068.22 138.869C1070.51 138.338 1079 136.212 1082.36 133.555C1085.72 130.898 1089.26 126.647 1089.26 122.219C1089.26 117.791 1085.72 114.071 1081.13 114.425C1074.76 115.134 1069.28 125.23 1068.22 130.721C1068.22 131.076 1067.68 135.15 1067.68 137.452C1066.8 135.504 1065.92 133.555 1064.86 131.43C1062.03 125.762 1059.02 120.093 1056.01 114.425C1055.13 112.654 1054.24 110.883 1053.36 109.111C1054.24 108.934 1064.32 106.632 1068.04 103.62C1071.4 100.963 1074.94 96.7123 1074.94 92.2841C1074.94 87.8558 1071.4 84.1361 1066.8 84.4903C1060.43 85.1989 1054.95 95.2953 1053.89 100.786C1053.89 101.141 1053.36 107.163 1053.18 108.58C1051.24 104.683 1049.29 100.963 1047.52 97.0666C1045.05 91.7527 1042.92 86.2616 1041.33 80.9477C1041.69 80.7706 1052.3 78.4679 1056.19 75.4567C1059.55 72.7998 1063.09 68.5486 1063.09 64.1204C1063.09 59.6921 1059.55 55.9724 1054.95 56.3267C1048.58 57.0352 1043.1 67.1316 1042.04 72.6226C1041.86 72.9769 1041.33 79.3536 1041.33 80.5935C1041.16 80.2392 1041.16 79.885 1040.98 79.7078C1039.21 74.0397 1038.33 68.1944 1037.8 62.7034C1037.44 59.515 1037.26 56.5038 1037.26 53.4926C1039.21 53.3155 1048.41 52.0756 1052.3 49.7729C1056.01 47.6473 1059.9 43.7504 1060.43 39.3222C1060.96 34.8939 1057.78 30.8199 1053.18 30.8199C1046.82 30.8199 1040.27 40.2078 1038.5 45.6989C1038.33 46.0531 1037.8 49.0643 1037.26 51.367C1037.26 49.95 1037.26 48.7101 1037.26 47.293C1037.26 42.5105 1037.62 38.0823 1037.8 34.1854C1037.97 31.8827 1038.15 29.9343 1038.5 28.163C1040.27 26.9231 1047.7 21.6092 1050 17.8895C1052.12 14.1697 1054.07 9.03295 1052.3 4.78183C1050.71 0.707839 1045.93 -1.59485 1041.86 0.530709C1036.2 3.54192 1034.79 14.8782 1035.67 20.5464C1035.67 21.0778 1037.97 28.5173 1037.97 28.3401H1038.15C1037.97 30.1114 1037.62 32.0599 1037.44 34.1854C1037.09 38.0823 1036.73 42.5105 1036.56 47.293C1036.38 52.0756 1036.38 57.3895 1036.91 62.8805C1037.44 68.3715 1038.15 74.2168 1039.74 80.0621V80.2392C1038.68 78.6451 1035.85 74.3939 1035.5 74.0397C1031.78 69.7886 1022.05 63.589 1016.22 66.0688C1011.97 67.8401 1010.74 72.9769 1012.86 76.8738C1015.16 81.1249 1020.29 83.0733 1024.53 83.7818Z" fill="hsl(0deg, 0%, 90%)"/>
<path d="M1133.65 53.8458C1133.83 53.8458 1135.6 46.4063 1135.78 45.8749C1136.48 40.2068 1134.72 28.8705 1129.06 26.0364C1124.99 24.0879 1120.39 26.3906 1118.8 30.6418C1117.21 34.8929 1119.15 40.0296 1121.45 43.5722C1124.28 47.8234 1133.65 53.8458 1133.65 53.8458Z" fill="hsl(0deg, 0%, 90%)"/>
<path d="M801.684 51.3677C806.283 53.3161 817.425 53.139 817.425 53.139C817.602 53.139 814.949 45.8767 814.772 45.3453C812.296 40.2085 804.514 31.7063 798.324 32.5919C793.726 33.1233 791.249 37.7287 792.311 41.9798C793.372 46.408 797.793 49.5964 801.684 51.3677Z" fill="hsl(0deg, 0%, 90%)"/>
<path d="M805.576 83.7818C810.351 84.4903 820.255 81.6563 821.139 81.302C822.731 86.9702 824.854 92.4612 827.153 98.1294C828.568 101.318 829.983 104.506 831.574 107.694C830.69 106.277 829.806 105.215 829.629 105.037C825.915 100.786 816.187 94.5868 810.351 97.0666C806.106 98.8379 804.868 103.975 806.991 107.872C809.113 111.768 814.419 113.717 818.487 114.425C822.731 115.134 831.221 112.831 833.52 112.123C834.05 113.363 834.758 114.602 835.288 115.665C838.118 121.511 841.125 127.179 843.778 132.847C844.662 134.795 845.546 136.921 846.431 138.869C845.546 137.629 845.016 136.744 844.839 136.567C841.125 132.315 831.397 126.116 825.561 128.596C821.316 130.367 820.078 135.504 822.201 139.401C824.323 143.298 829.629 145.246 833.697 145.954C837.764 146.486 845.723 144.537 848.376 143.829C849.26 145.954 849.968 148.08 850.675 150.028C851.206 151.445 851.737 152.863 852.09 154.28C852.444 155.697 852.798 157.114 853.328 158.531C854.036 161.188 854.743 164.022 855.274 166.679C855.627 168.45 855.981 170.398 856.335 172.17C855.451 170.221 853.505 166.324 853.328 165.97C850.322 161.188 841.655 153.571 835.465 155.165C831.044 156.228 829.098 161.188 830.513 165.262C832.105 169.513 836.88 172.17 840.948 173.41C845.37 174.827 855.274 173.587 856.512 173.41C857.042 176.421 857.573 179.255 858.104 181.912C859.165 187.403 859.872 192.54 860.403 196.791H864.471C863.763 192.363 862.879 187.049 861.641 181.203C861.11 178.192 860.403 175.004 859.695 171.638C860.403 171.284 864.647 169.69 868.362 167.564C871.545 171.107 880.034 175.181 881.096 175.712C880.034 178.546 878.796 181.203 877.735 183.683C875.613 188.466 873.667 192.894 871.899 196.614H876.32C877.912 193.248 879.504 189.351 881.272 185.1C882.511 182.266 883.572 179.255 884.81 176.067C886.048 176.244 895.775 178.369 900.374 177.306C904.441 176.421 909.57 173.941 911.339 169.867C913.108 165.793 911.516 160.833 907.094 159.416C901.081 157.468 891.884 164.199 888.524 168.804C888.347 169.159 886.578 172.17 885.34 174.295C885.871 173.055 886.225 171.815 886.755 170.398C887.64 167.741 888.524 165.085 889.585 162.25C889.939 160.833 890.469 159.416 890.823 157.999C891.354 156.582 891.53 154.988 891.884 153.571C892.769 150.206 893.299 146.663 894.007 142.943C896.306 143.829 904.441 146.663 908.863 146.309C913.108 145.954 918.414 144.537 920.89 140.641C923.366 136.921 922.481 131.784 918.413 129.658C912.754 126.647 902.673 132.138 898.605 136.212C898.428 136.389 895.775 139.755 894.36 141.526C894.714 139.401 895.068 137.275 895.245 134.972C895.952 128.596 896.659 122.219 897.19 115.842C897.367 113.894 897.544 111.945 897.721 109.997C898.605 110.351 908.156 113.894 912.931 113.54C917.175 113.185 922.481 111.768 924.957 107.872C927.433 104.152 926.549 99.015 922.481 96.8895C916.822 93.8782 906.741 99.3693 902.673 103.443C902.319 103.798 898.605 108.403 897.721 109.643C898.251 105.392 898.605 100.963 899.312 96.8895C900.197 91.0442 901.435 85.376 903.026 80.0621C903.38 80.2392 913.461 83.959 918.413 83.6047C922.658 83.2504 927.964 81.8334 930.44 77.9365C932.916 74.2168 932.032 69.08 927.964 66.9545C922.304 63.9433 912.223 69.4343 908.156 73.5083C907.802 73.8625 903.911 78.8222 903.203 79.7078C903.38 79.3536 903.38 78.9993 903.38 78.6451C905.149 72.9769 907.625 67.663 910.101 62.7034C911.516 59.8693 913.108 57.2123 914.699 54.7325C916.468 55.6181 924.78 59.6921 929.202 59.8693C933.447 60.0464 938.929 59.1607 941.759 55.6181C944.589 52.2527 944.235 46.9388 940.521 44.459C935.215 40.9164 924.604 45.1675 920.005 48.7101C919.828 48.8872 917.529 51.1899 915.937 52.7841C916.645 51.7213 917.352 50.4814 918.06 49.4186C920.713 45.3446 923.366 41.802 925.842 38.7908C927.257 37.0195 928.495 35.4253 929.733 34.0083C932.032 34.0083 941.052 33.654 944.943 31.8827C948.834 30.1114 953.255 26.746 954.14 22.3177C955.024 18.0666 952.371 13.4612 947.773 13.1069C941.405 12.3984 933.977 21.0778 931.678 26.3917C931.501 26.9231 929.202 34.1854 929.202 34.1854H929.379C928.141 35.6025 926.903 37.0195 925.488 38.6137C923.012 41.6249 920.182 45.1675 917.529 49.0643C914.699 52.9612 911.87 57.3895 909.217 62.3491C906.564 67.3087 904.088 72.6226 902.142 78.2908V78.4679C902.142 76.5195 902.142 71.3827 901.965 71.0285C901.258 65.3603 896.483 54.9096 890.292 53.6697C885.694 52.7841 881.98 56.3267 881.626 60.7549C881.273 65.1832 884.456 69.7886 887.64 72.6226C891.177 75.811 901.081 78.9993 901.965 79.1764C900.197 84.6675 898.782 90.5128 897.721 96.5352C897.19 99.9007 896.659 103.443 896.129 106.809C896.129 105.215 896.129 103.798 896.129 103.62C895.421 97.9522 890.646 87.5016 884.456 86.2616C879.858 85.376 876.143 88.9186 875.79 93.3468C875.436 97.7751 878.62 102.38 881.803 105.215C884.987 108.049 893.476 110.883 895.598 111.591C895.421 113.008 895.245 114.248 895.068 115.665C894.36 122.042 893.653 128.419 892.592 134.618C892.238 136.744 891.884 139.046 891.53 141.172C891.53 139.755 891.53 138.515 891.53 138.338C890.823 132.67 886.048 122.219 879.858 120.979C875.259 120.093 871.545 123.636 871.191 128.064C870.838 132.493 874.021 137.098 877.205 139.932C880.211 142.589 887.993 145.423 890.646 146.132C890.116 148.257 889.762 150.56 889.231 152.685C888.878 154.102 888.524 155.519 887.993 156.937C887.463 158.354 887.109 159.771 886.578 161.188C885.694 163.845 884.633 166.502 883.572 169.158C882.864 170.93 882.157 172.701 881.449 174.295C881.803 172.17 882.334 167.741 882.334 167.387C882.334 163.667 881.096 157.468 878.443 153.217C878.443 152.685 878.443 152.154 878.266 151.623C877.558 147.194 873.491 144.006 869.069 145.246C862.879 146.84 858.988 157.645 858.634 163.313C858.634 163.667 858.811 167.387 858.988 169.69C858.634 168.273 858.457 167.033 858.104 165.616C857.396 162.959 856.689 160.125 855.981 157.291C855.628 155.874 855.097 154.457 854.743 153.04C854.389 151.623 853.682 150.206 853.328 148.789C852.09 145.423 850.675 142.058 849.26 138.869C851.56 138.338 860.049 136.212 863.409 133.555C866.77 130.898 870.307 126.647 870.307 122.219C870.307 117.791 866.77 114.071 862.171 114.425C855.804 115.134 850.322 125.23 849.26 130.721C849.26 131.076 848.73 135.15 848.73 137.452C847.846 135.504 846.961 133.555 845.9 131.43C843.07 125.762 840.064 120.093 837.057 114.425C836.173 112.654 835.288 110.883 834.404 109.111C835.288 108.934 845.37 106.632 849.084 103.62C852.444 100.963 855.981 96.7123 855.981 92.2841C855.981 87.8558 852.444 84.1361 847.846 84.4903C841.479 85.1989 835.996 95.2953 834.935 100.786C834.935 101.141 834.404 107.163 834.227 108.58C832.282 104.683 830.336 100.963 828.568 97.0666C826.092 91.7527 823.969 86.2616 822.378 80.9477C822.731 80.7706 833.343 78.4679 837.234 75.4567C840.594 72.7998 844.131 68.5486 844.131 64.1204C844.131 59.6921 840.594 55.9724 835.996 56.3267C829.629 57.0352 824.146 67.1316 823.085 72.6226C822.908 72.9769 822.378 79.3536 822.378 80.5935C822.201 80.2392 822.201 79.885 822.024 79.7078C820.255 74.0397 819.371 68.1944 818.84 62.7034C818.487 59.515 818.31 56.5038 818.31 53.4926C820.255 53.3155 829.452 52.0756 833.343 49.7729C837.057 47.6473 840.948 43.7504 841.479 39.3222C842.009 34.8939 838.826 30.8199 834.227 30.8199C827.86 30.8199 821.316 40.2078 819.548 45.6989C819.371 46.0531 818.84 49.0643 818.31 51.367C818.31 49.95 818.31 48.7101 818.31 47.293C818.31 42.5105 818.663 38.0823 818.84 34.1854C819.017 31.8827 819.194 29.9343 819.548 28.163C821.316 26.9231 828.745 21.6092 831.044 17.8895C833.166 14.1697 835.112 9.03295 833.343 4.78183C831.751 0.707839 826.976 -1.59485 822.908 0.530709C817.248 3.54192 815.834 14.8782 816.718 20.5464C816.718 21.0778 819.017 28.5173 819.017 28.3401H819.194C819.017 30.1114 818.663 32.0599 818.487 34.1854C818.133 38.0823 817.779 42.5105 817.602 47.293C817.425 52.0756 817.425 57.3895 817.956 62.8805C818.487 68.3715 819.194 74.2168 820.786 80.0621V80.2392C819.725 78.6451 816.895 74.3939 816.541 74.0397C812.827 69.7886 803.1 63.589 797.263 66.0688C793.018 67.8401 791.78 72.9769 793.903 76.8738C796.202 81.1249 801.331 83.0733 805.576 83.7818Z" fill="hsl(0deg, 0%, 90%)"/>
<path d="M914.876 53.8458C915.053 53.8458 916.821 46.4063 916.998 45.8749C917.706 40.2068 915.937 28.8705 910.278 26.0364C906.21 24.0879 901.611 26.3906 900.02 30.6418C898.428 34.8929 900.373 40.0296 902.672 43.5722C905.325 47.8234 914.699 53.8458 914.876 53.8458Z" fill="hsl(0deg, 0%, 90%)"/>
<path d="M918.943 106.277C921.773 107.517 928.671 107.34 928.671 107.34C928.671 107.34 927.256 102.735 927.079 102.558C925.487 99.3693 920.712 94.0554 916.821 94.5868C913.991 94.9411 912.399 97.7752 913.107 100.432C913.814 103.266 916.467 105.215 918.943 106.277Z" fill="hsl(0deg, 0%, 90%)"/>
<path d="M921.42 126.472C924.426 126.827 930.616 125.055 930.97 124.878C932.031 128.421 933.269 131.786 934.684 135.329C935.569 137.277 936.453 139.226 937.337 141.174C936.807 140.288 936.276 139.58 936.099 139.58C933.8 136.923 927.787 133.026 924.073 134.62C921.42 135.683 920.712 138.871 921.95 141.351C923.365 143.831 926.549 145.071 929.201 145.425C931.854 145.78 937.16 144.363 938.575 144.008C938.929 144.717 939.283 145.425 939.636 146.311C941.405 149.854 943.174 153.396 944.942 156.939C945.473 158.179 946.003 159.419 946.534 160.658C946.003 159.95 945.65 159.241 945.473 159.241C943.174 156.584 937.16 152.688 933.446 154.282C930.793 155.345 930.086 158.533 931.324 161.013C932.739 163.493 935.922 164.732 938.575 165.087C941.051 165.441 946.003 164.201 947.772 163.67C948.303 164.91 948.833 166.327 949.187 167.567C949.541 168.452 949.718 169.338 950.071 170.223C950.248 171.109 950.602 171.995 950.779 172.88C951.132 174.652 951.663 176.246 952.017 178.017C952.194 179.257 952.547 180.32 952.724 181.383C952.194 180.143 950.956 177.663 950.779 177.486C948.833 174.475 943.527 169.869 939.636 170.755C936.807 171.463 935.569 174.475 936.63 176.954C937.514 179.611 940.521 181.206 943.174 182.091C946.003 182.977 952.017 182.091 952.901 182.091C953.255 183.862 953.608 185.811 953.962 187.405C954.493 190.771 955.023 193.959 955.377 196.616H958.03C957.676 193.782 956.969 190.593 956.261 186.874C955.908 184.925 955.554 182.977 955.023 181.028C955.554 180.851 958.03 179.788 960.506 178.549C962.452 180.674 967.757 183.331 968.465 183.685C967.757 185.457 967.05 187.051 966.342 188.645C965.104 191.656 963.866 194.313 962.628 196.616H965.458C966.342 194.49 967.404 192.188 968.465 189.531C969.172 187.759 969.88 185.811 970.587 183.862C971.295 184.04 977.485 185.28 980.315 184.571C982.968 184.04 985.974 182.445 987.212 179.966C988.273 177.486 987.389 174.475 984.559 173.412C980.845 172.172 975.009 176.423 973.063 179.257C972.886 179.434 971.825 181.383 971.118 182.623C971.471 181.737 971.648 181.028 972.002 180.143C972.533 178.549 973.063 176.777 973.771 175.006C973.948 174.12 974.301 173.235 974.478 172.349C974.832 171.463 975.009 170.578 975.186 169.692C975.716 167.567 976.07 165.264 976.424 163.138C977.838 163.67 982.968 165.441 985.62 165.264C988.273 165.087 991.634 164.024 993.049 161.721C994.464 159.419 993.933 156.23 991.457 154.99C987.92 153.219 981.553 156.584 979.077 159.064C978.9 159.241 977.308 161.19 976.424 162.253C976.6 160.836 976.777 159.596 976.954 158.179C977.485 154.282 977.838 150.208 978.192 146.311C978.369 145.071 978.369 143.831 978.546 142.591C979.077 142.768 985.09 145.071 988.097 144.894C990.749 144.717 994.11 143.654 995.525 141.351C996.94 139.049 996.409 135.86 993.933 134.62C990.396 132.849 984.029 136.215 981.553 138.694C981.376 138.871 979.077 141.706 978.546 142.591C978.9 139.934 979.077 137.277 979.607 134.62C980.138 131.078 980.845 127.535 981.906 124.17C982.083 124.347 988.45 126.65 991.457 126.472C994.11 126.295 997.47 125.232 998.885 122.93C1000.3 120.627 999.769 117.439 997.293 116.199C993.756 114.428 987.389 117.793 984.913 120.273C984.736 120.45 982.26 123.638 981.906 124.17C981.906 123.993 982.083 123.815 982.083 123.638C983.144 120.096 984.736 116.73 986.151 113.719C987.035 111.948 988.097 110.354 988.981 108.759C990.042 109.291 995.348 111.771 998.001 111.948C1000.65 112.125 1004.01 111.416 1005.78 109.291C1007.55 107.165 1007.37 103.977 1004.9 102.383C1001.54 100.257 994.994 102.737 992.164 105.04C991.987 105.217 990.573 106.634 989.688 107.519C990.219 106.811 990.573 106.102 991.103 105.394C992.695 102.914 994.464 100.789 995.878 98.8401C996.763 97.7773 997.47 96.7145 998.355 95.8289C999.769 95.8289 1005.43 95.6518 1007.73 94.4118C1010.2 93.3491 1012.86 91.2235 1013.39 88.3894C1013.92 85.7325 1012.33 82.8984 1009.5 82.5441C1005.61 82.1899 1000.83 87.5038 999.416 90.6921C999.239 91.0464 997.824 95.4746 998.001 95.4746C997.293 96.3603 996.409 97.2459 995.702 98.3087C994.11 100.257 992.518 102.383 990.749 104.863C988.981 107.342 987.212 109.999 985.62 113.01C984.029 116.022 982.437 119.387 981.199 122.93C981.199 122.93 981.199 122.93 981.199 123.107C981.199 121.867 981.199 118.679 981.199 118.502C980.668 114.959 977.839 108.405 973.948 107.697C971.118 107.165 968.819 109.291 968.465 112.125C968.288 114.959 970.234 117.616 972.179 119.387C974.478 121.336 980.491 123.284 981.022 123.461C979.961 126.827 979.077 130.546 978.369 134.266C978.015 136.392 977.662 138.517 977.308 140.643C977.308 139.58 977.308 138.694 977.308 138.694C976.777 135.152 973.948 128.598 970.057 127.889C967.227 127.358 964.928 129.484 964.574 132.318C964.397 135.152 966.343 137.809 968.288 139.58C970.233 141.351 975.539 143.123 976.954 143.477C976.777 144.362 976.777 145.071 976.601 145.957C976.07 149.854 975.716 153.928 975.186 157.824C975.009 159.241 974.655 160.481 974.478 161.898C974.478 161.013 974.478 160.304 974.478 160.127C973.948 156.584 971.118 150.031 967.227 149.322C964.397 148.791 962.098 150.916 961.744 153.75C961.567 156.584 963.513 159.241 965.458 161.013C967.404 162.784 972.179 164.378 973.771 164.91C973.417 166.327 973.24 167.567 972.886 168.984C972.71 169.869 972.533 170.755 972.179 171.641C971.825 172.526 971.648 173.412 971.295 174.297C970.764 175.892 970.057 177.663 969.526 179.257C969.172 180.32 968.642 181.383 968.288 182.445C968.465 181.028 968.819 178.371 968.819 178.194C968.819 175.892 968.111 171.995 966.342 169.338C966.342 168.984 966.342 168.629 966.342 168.275C965.989 165.618 963.336 163.493 960.683 164.378C956.792 165.441 954.493 172.172 954.316 175.714C954.316 175.892 954.493 178.194 954.493 179.611C954.316 178.726 954.139 178.017 953.962 177.132C953.608 175.36 953.078 173.766 952.547 171.995C952.37 171.109 952.017 170.223 951.84 169.338C951.663 168.452 951.309 167.567 950.956 166.681C950.248 164.555 949.364 162.607 948.479 160.481C949.894 160.127 955.2 158.71 957.323 157.116C959.445 155.522 961.567 152.865 961.567 150.031C961.567 147.374 959.268 144.894 956.438 145.248C952.547 145.602 949.01 151.979 948.303 155.345C948.303 155.522 947.949 158.179 947.949 159.419C947.418 158.179 946.888 156.939 946.18 155.699C944.412 152.156 942.466 148.614 940.698 145.071C940.167 144.008 939.636 142.945 938.929 141.883C939.459 141.706 945.65 140.288 948.126 138.517C950.248 136.923 952.37 134.266 952.37 131.432C952.37 128.775 950.071 126.295 947.241 126.649C943.35 127.004 939.813 133.38 939.106 136.746C939.106 136.923 938.752 140.643 938.752 141.528C937.514 139.226 936.276 136.746 935.215 134.266C933.623 130.901 932.385 127.535 931.324 124.347C931.501 124.347 938.045 122.753 940.521 120.981C942.643 119.387 944.765 116.73 944.765 113.896C944.765 111.239 942.466 108.759 939.636 109.114C935.745 109.468 932.208 115.845 931.501 119.21C931.501 119.564 931.147 123.461 931.147 124.17C931.147 123.993 930.97 123.815 930.97 123.638C929.909 120.096 929.378 116.553 929.025 113.01C928.848 111.062 928.671 109.114 928.671 107.342C929.909 107.165 935.569 106.457 938.045 105.04C940.344 103.623 942.82 101.32 942.997 98.4858C943.351 95.8289 941.405 93.1719 938.575 93.1719C934.684 93.1719 930.616 99.0172 929.378 102.383C929.378 102.56 928.848 104.508 928.671 105.925C928.671 105.04 928.671 104.154 928.671 103.445C928.671 100.434 928.848 97.7773 929.025 95.2975C929.202 93.8805 929.202 92.6405 929.378 91.5778C930.44 90.8692 935.038 87.5038 936.453 85.2011C937.868 82.8984 938.929 79.7101 937.868 77.0531C936.807 74.5733 933.977 73.1562 931.501 74.3962C927.964 76.1675 927.079 83.2527 927.61 86.7953C927.61 87.1495 929.025 91.7549 929.025 91.7549C928.848 92.8177 928.671 94.0576 928.494 95.2975C928.317 97.7773 927.964 100.434 927.964 103.445C927.964 106.457 927.963 109.645 928.14 113.188C928.494 116.553 929.025 120.273 929.909 123.993C929.909 123.993 929.909 123.993 929.909 124.17C929.202 123.107 927.433 120.45 927.256 120.273C924.957 117.616 918.944 113.719 915.229 115.313C912.577 116.376 911.869 119.564 913.107 122.044C915.583 124.878 918.767 126.118 921.42 126.472Z" fill="hsl(0deg, 0%, 90%)"/>
<path d="M989.158 107.873C989.158 107.873 990.396 103.267 990.396 102.913C990.927 99.3706 989.688 92.2854 986.151 90.6912C983.498 89.4513 980.668 90.8683 979.784 93.5253C978.9 96.1822 979.961 99.3706 981.553 101.673C983.321 104.153 989.158 107.873 989.158 107.873Z" fill="hsl(0deg, 0%, 90%)"/>
<path d="M353.339 51.3677C357.938 53.3161 369.08 53.139 369.08 53.139C369.257 53.139 366.604 45.8767 366.427 45.3453C363.951 40.2085 356.169 31.7063 349.979 32.5919C345.381 33.1233 342.905 37.7287 343.966 41.9798C344.85 46.408 349.448 49.5964 353.339 51.3677Z" fill="hsl(0deg, 0%, 90%)"/>
<path d="M357.231 83.7818C362.006 84.4903 371.91 81.6563 372.795 81.302C374.386 86.9702 376.509 92.4612 378.808 98.1294C380.223 101.318 381.638 104.506 383.229 107.694C382.345 106.277 381.461 105.215 381.284 105.037C377.57 100.786 367.842 94.5868 362.006 97.0666C357.761 98.8379 356.523 103.975 358.646 107.872C360.768 111.768 366.074 113.717 370.142 114.425C374.386 115.134 382.876 112.831 385.175 112.123C385.706 113.363 386.413 114.602 386.944 115.665C389.773 121.511 392.78 127.179 395.433 132.847C396.317 134.795 397.202 136.921 398.086 138.869C397.202 137.629 396.671 136.744 396.494 136.567C392.78 132.315 383.053 126.116 377.216 128.596C372.971 130.367 371.733 135.504 373.856 139.401C375.978 143.298 381.284 145.246 385.352 145.954C389.42 146.486 397.378 144.537 400.031 143.829C400.916 145.954 401.623 148.08 402.331 150.028C402.861 151.445 403.392 152.863 403.745 154.28C404.099 155.697 404.453 157.114 404.983 158.531C405.691 161.188 406.398 164.022 406.929 166.679C407.283 168.45 407.636 170.398 407.99 172.17C407.106 170.221 405.16 166.324 404.983 165.97C401.977 161.188 393.311 153.571 387.12 155.165C382.699 156.228 380.753 161.188 382.168 165.262C383.76 169.513 388.535 172.17 392.603 173.41C397.025 174.827 406.929 173.587 408.167 173.41C408.698 176.421 409.228 179.255 409.759 181.912C410.82 187.403 411.527 192.54 412.058 196.791H416.126C415.418 192.363 414.534 187.049 413.296 181.203C412.765 178.192 412.058 175.004 411.35 171.638C412.058 171.284 416.303 169.69 420.017 167.564C423.2 171.107 431.69 175.181 432.751 175.712C431.69 178.546 430.452 181.203 429.39 183.683C427.268 188.466 425.323 192.894 423.554 196.614H427.975C429.567 193.248 431.159 189.351 432.928 185.1C434.166 182.266 435.227 179.255 436.465 176.067C437.703 176.244 447.43 178.369 452.029 177.306C456.097 176.421 461.226 173.941 462.994 169.867C464.763 165.793 463.171 160.833 458.749 159.416C452.736 157.468 443.539 164.199 440.179 168.804C440.002 169.159 438.233 172.17 436.995 174.295C437.526 173.055 437.88 171.815 438.41 170.398C439.295 167.741 440.179 165.085 441.24 162.25C441.594 160.833 442.124 159.416 442.478 157.999C443.009 156.582 443.186 154.988 443.539 153.571C444.424 150.206 444.954 146.663 445.662 142.943C447.961 143.829 456.097 146.663 460.518 146.309C464.763 145.954 470.069 144.537 472.545 140.641C475.021 136.921 474.136 131.784 470.069 129.658C464.409 126.647 454.328 132.138 450.26 136.212C450.083 136.389 447.43 139.755 446.015 141.526C446.369 139.401 446.723 137.275 446.9 134.972C447.607 128.596 448.315 122.219 448.845 115.842C449.022 113.894 449.199 111.945 449.376 109.997C450.26 110.351 459.811 113.894 464.586 113.54C468.831 113.185 474.136 111.768 476.613 107.872C479.089 104.152 478.204 99.015 474.136 96.8895C468.477 93.8782 458.396 99.3693 454.328 103.443C453.974 103.798 450.26 108.403 449.376 109.643C449.906 105.392 450.26 100.963 450.968 96.8895C451.852 91.0442 453.09 85.376 454.682 80.0621C455.035 80.2392 465.116 83.959 470.069 83.6047C474.313 83.2504 479.619 81.8334 482.095 77.9365C484.571 74.2168 483.687 69.08 479.619 66.9545C473.96 63.9433 463.878 69.4343 459.811 73.5083C459.457 73.8625 455.566 78.8222 454.858 79.7078C455.035 79.3536 455.035 78.9993 455.035 78.6451C456.804 72.9769 459.28 67.663 461.756 62.7034C463.171 59.8693 464.763 57.2123 466.355 54.7325C468.123 55.6181 476.436 59.6921 480.857 59.8693C485.102 60.0464 490.585 59.1607 493.414 55.6181C496.244 52.2527 495.89 46.9388 492.176 44.459C486.87 40.9164 476.259 45.1675 471.66 48.7101C471.483 48.8872 469.184 51.1899 467.593 52.7841C468.3 51.7213 469.007 50.4814 469.715 49.4186C472.368 45.3446 475.021 41.802 477.497 38.7908C478.912 37.0195 480.15 35.4253 481.388 34.0083C483.687 34.0083 492.707 33.654 496.598 31.8827C500.489 30.1114 504.91 26.746 505.795 22.3177C506.679 18.0666 504.026 13.4612 499.428 13.1069C493.061 12.3984 485.632 21.0778 483.333 26.3917C483.156 26.9231 480.857 34.1854 480.857 34.1854H481.034C479.796 35.6025 478.558 37.0195 477.143 38.6137C474.667 41.6249 471.837 45.1675 469.184 49.0643C466.355 52.9612 463.525 57.3895 460.872 62.3491C458.219 67.3087 455.743 72.6226 453.797 78.2908V78.4679C453.797 76.5195 453.797 71.3827 453.62 71.0285C452.913 65.3603 448.138 54.9096 441.948 53.6697C437.349 52.7841 433.635 56.3267 433.281 60.7549C432.928 65.1832 436.111 69.7886 439.295 72.6226C442.832 75.811 452.736 78.9993 453.62 79.1764C451.852 84.6675 450.437 90.5128 449.376 96.5352C448.845 99.9007 448.315 103.443 447.784 106.809C447.784 105.215 447.784 103.798 447.784 103.62C447.077 97.9522 442.301 87.5016 436.111 86.2616C431.513 85.376 427.799 88.9186 427.445 93.3468C427.091 97.7751 430.275 102.38 433.458 105.215C436.642 108.049 445.131 110.883 447.253 111.591C447.077 113.008 446.9 114.248 446.723 115.665C446.015 122.042 445.308 128.419 444.247 134.618C443.893 136.744 443.539 139.046 443.186 141.172C443.186 139.755 443.186 138.515 443.186 138.338C442.478 132.67 437.703 122.219 431.513 120.979C426.914 120.093 423.2 123.636 422.847 128.064C422.493 132.493 425.676 137.098 428.86 139.932C431.866 142.589 439.648 145.423 442.301 146.132C441.771 148.257 441.417 150.56 440.886 152.685C440.533 154.102 440.179 155.519 439.648 156.937C439.118 158.354 438.764 159.771 438.233 161.188C437.349 163.845 436.288 166.502 435.227 169.158C434.519 170.93 433.812 172.701 433.104 174.295C433.458 172.17 433.989 167.741 433.989 167.387C433.989 163.667 432.751 157.468 430.098 153.217C430.098 152.685 430.098 152.154 429.921 151.623C429.214 147.194 425.146 144.006 420.724 145.246C414.534 146.84 410.643 157.645 410.289 163.313C410.289 163.667 410.466 167.387 410.643 169.69C410.289 168.273 410.112 167.033 409.759 165.616C409.051 162.959 408.344 160.125 407.636 157.291C407.283 155.874 406.752 154.457 406.398 153.04C406.045 151.623 405.337 150.206 404.983 148.789C403.745 145.423 402.331 142.058 400.916 138.869C403.215 138.338 411.704 136.212 415.065 133.555C418.425 130.898 421.962 126.647 421.962 122.219C421.962 117.791 418.425 114.071 413.827 114.425C407.46 115.134 401.977 125.23 400.916 130.721C400.916 131.076 400.385 135.15 400.385 137.452C399.501 135.504 398.616 133.555 397.555 131.43C394.725 125.762 391.719 120.093 388.712 114.425C387.828 112.654 386.944 110.883 386.059 109.111C386.944 108.934 397.025 106.632 400.739 103.62C404.099 100.963 407.636 96.7123 407.636 92.2841C407.636 87.8558 404.099 84.1361 399.501 84.4903C393.134 85.1989 387.651 95.2953 386.59 100.786C386.59 101.141 386.059 107.163 385.882 108.58C383.937 104.683 381.991 100.963 380.223 97.0666C377.747 91.7527 375.624 86.2616 374.033 80.9477C374.386 80.7706 384.998 78.4679 388.889 75.4567C392.249 72.7998 395.787 68.5486 395.787 64.1204C395.787 59.6921 392.249 55.9724 387.651 56.3267C381.284 57.0352 375.801 67.1316 374.74 72.6226C374.563 72.9769 374.033 79.3536 374.033 80.5935C373.856 80.2392 373.856 79.885 373.679 79.7078C371.91 74.0397 371.026 68.1944 370.495 62.7034C370.142 59.515 369.965 56.5038 369.965 53.4926C371.91 53.3155 381.107 52.0756 384.998 49.7729C388.712 47.6473 392.603 43.7504 393.134 39.3222C393.664 34.8939 390.481 30.8199 385.882 30.8199C379.515 30.8199 372.971 40.2078 371.203 45.6989C371.026 46.0531 370.495 49.0643 369.965 51.367C369.965 49.95 369.965 48.7101 369.965 47.293C369.965 42.5105 370.319 38.0823 370.495 34.1854C370.672 31.8827 370.849 29.9343 371.203 28.163C372.971 26.9231 380.4 21.6092 382.699 17.8895C384.821 14.1697 386.767 9.03295 384.998 4.78183C383.406 0.707839 378.631 -1.59485 374.563 0.530709C368.904 3.54192 367.489 14.8782 368.373 20.5464C368.373 21.0778 370.672 28.5173 370.672 28.3401H370.849C370.672 30.1114 370.319 32.0599 370.142 34.1854C369.788 38.0823 369.434 42.5105 369.257 47.293C369.081 52.0756 369.08 57.3895 369.611 62.8805C370.142 68.3715 370.849 74.2168 372.441 80.0621V80.2392C371.38 78.6451 368.55 74.3939 368.196 74.0397C364.482 69.7886 354.755 63.589 348.918 66.0688C344.674 67.8401 343.436 72.9769 345.558 76.8738C347.857 81.1249 352.986 83.0733 357.231 83.7818Z" fill="hsl(0deg, 0%, 90%)"/>
<path d="M466.354 53.8458C466.531 53.8458 468.3 46.4063 468.476 45.8749C469.184 40.2068 467.415 28.8705 461.756 26.0364C457.688 24.0879 453.089 26.3906 451.498 30.6418C449.906 34.8929 451.851 40.0296 454.151 43.5722C456.98 47.8234 466.354 53.8458 466.354 53.8458Z" fill="hsl(0deg, 0%, 90%)"/>
</svg>
