<?xml version="1.0" encoding="UTF-8"?>
<!-- Created with Inkscape (http://www.inkscape.org/) -->
<svg width="220" height="93" version="1.1" viewBox="0 0 220 93" xmlns="http://www.w3.org/2000/svg" xmlns:xlink="http://www.w3.org/1999/xlink">
 <g>
  
  <path d="m42.692 55.419c-0.92759-0.92759-1.4484-2.8068-1.5233-4.6681-0.07491-1.8613 0.59404-3.7978 1.4499-4.6536 0.90777-0.90777 2.0455-1.1527 4.1912-1.2308 0.84887-0.03088 4.5723-0.24874 5.1304 0.41554 0.28474 0.33895 0.19909 1.9561 0.18046 2.773-0.0052 0.22651-1.0064 0.27069-3.3558 0.27069-1.912 0-3.2727-0.29316-3.5577 0.25011-0.45632 0.86991-1.1146 3.3944-0.1391 4.7285 0.92399 1.2636 4.5006 0.52698 6.4831 0.57525 0.85766 0.02088 0.72656 0.69232 0.66262 2.377-0.01863 0.49072-1.0455 0.77112-4.3197 0.77112-2.2381 0-4.3067-0.71344-5.202-1.6087zm15.253 0.69622c-2.2393-2.2393-2.4311-7.8388-0.55-9.7199 1.5543-1.5543 9.0457-1.5543 10.6 0 1.9945 1.9945 1.5002 8.569-0.73426 9.7648-2.4414 1.3066-7.1253 2.1561-9.3157-0.04491zm4.6183-7.9472c-2.7014 0-3.809 2.4365-2.9883 4.5752 0.719 1.8737 4.1063 2.3717 5.6468 0.21768 1.5405-2.1541 0.2885-4.7929-2.6585-4.7929zm17.732 9.2593c-0.40628 0 0.20948-2.0496-0.36315-2.5155-0.58139-0.47297-3.9023 0.30476-4.9862-0.32459-1.3564-0.67626-1.6209-3.0696-1.7945-4.6573s0.25139-3.0418 1.4568-3.6666c1.6626-1.0447 3.5239-1.0667 5.3165-1.3692 0.16117-0.18168-0.05512-0.96389 0.24068-0.95755 0.53726 0.01151 2.3647-0.0105 2.9679 0.10732 0.34702 0.06778-0.08546 0.84628 0.22318 1.0591 0.64221 0.4429 3.5036-0.07863 5.152 1.3281 1.1368 0.97012 1.0441 3.2387 0.99338 3.8421-0.13821 1.6429-0.73839 4.36-2.6104 4.6253-1.2711 0.18016-3.4559-0.47261-3.7561 0.30973-0.32694 0.852 0.0164 2.161-0.40585 2.2278-0.53077 0.08395-1.6721 0.01219-2.4344-0.0088-7e-6 -1e-6 0 2.2e-5 0 2.2e-5zm-0.14757-7.0659c-0.07813-1.1271-0.40061-1.931-1.7375-1.9219-1.4418 0.0097-2.0677 0.84525-2.0273 1.8693 0.04665 1.1816 0.50632 1.9716 2.0536 1.9746 1.4156 0.0028 1.7767-0.97697 1.7112-1.9219zm6.2575-0.16607c-0.01229-0.70872-0.14284-1.9779-1.6903-2.0859-1.7365-0.12124-2.1197 1.4566-2.0999 2.0332 0.03151 0.91691 0.47393 2.154 2.1533 2.1538 1.4948-1.69e-4 1.6503-1.3288 1.6369-2.1011zm8.0063 6.3177c-0.36667-0.36667-0.2448-3.051-0.2448-5.9844 0-4.6667-0.29138-5.0019 0.23224-5.1124 0.64215-0.1355 2.4324-0.13717 2.7683 0.18862 0.33593 0.32579 0.22605 2.0923 0.22605 2.7288 0 1.5195 0.61337 0.80809 3.5511 1.0512 1.6525 0.13677 2.5998 0.30013 3.1703 0.74785 0.57052 0.44772 0.76428 1.1798 0.90974 2.454 0.18748 1.6423-0.24454 3.2558-1 3.7347-1.5831 1.0036-8.6611 1.1435-9.613 0.19153zm7.7829-3.3177c0.0102-1.1468-1.125-1-2.5-1s-2.5289-0.49996-2.5 1c0.0306 1.5889 1.125 1 2.5 1s2.4894 0.19071 2.5-1zm8.295-0.54571c0.21447-0.62473-0.63303-0.63283-1.1624-2.0044-0.52942-1.3716-0.31221-3.4348 0.5221-4.4195 1.2407-1.4644 3.7282-1.1597 5.529-1.1396 1.7734 0.01984 5.1416-3.3e-4 5.3788 0.6032 0.71501 1.8193 0.4375 5.4562 0.4375 5.4562 0 2.6916 0.1324 4.9228-0.14515 5.7624s-3.1128 0.36867-3.4486 0.25624c-0.49476-0.16568-0.41325-3.1613-0.3731-3.8139 0.0401-0.6526-2.2492-0.20131-3.0548-0.20131s-0.66623 3.3655-1.8732 3.6813c-0.65451 0.17122-2.4966 0.69988-3.0882-0.14389-0.66058-0.94209 0.85039-2.7906 1.024-3.2964zm6.705-3.4543c0.0237-1.2701-0.49384-1.006-2-1-1.8658 0.0074-2.5996-0.06567-2.5781 1 0.0199 0.98737 0.68125 1 2.5781 1 1.6 0 1.9808 0.03371 2-1zm14.665 1.9375c0-5.3333-0.46279-6.3315 1.2045-6.4419 1.3304-0.08816 1.9533-3.7e-5 1.9312 0.93555-0.013 0.54985-0.14457 3.2817 0.0163 4.0309 0.16086 0.74924 1.2511 0.76585 1.4944 0.64286 0.32792-0.16573 0.94171-1.186 1.2108-1.6592 0.30666-0.53928 1.1127-1.8458 1.4562-2.3958 0.68696-1.1 0.83118-1.1997 1.7989-1.1997 0.54268 0 1.443-0.06494 1.7254 0.10067 0.28236 0.16567 0.40949 0.35832 0.39374 0.84125-0.01 0.2948-0.52332 1.2421-0.79636 1.5973-0.27304 0.35525-0.37572 0.44075-1.0086 1.0941-0.89593 0.92495-1.0252 1.1235-1.3567 2.0262-0.16009 0.436 0.17202 1.2948 0.42354 1.7532 0.17018 0.31016 1.4584 1.8289 2.2142 2.945s0.34057 1.7397 0.0839 1.7537c-0.5629 0.03078-1.905 0.09503-2.2126-5.36e-4 -0.70711-0.21969-1.3422-1.6811-1.899-2.6019-0.76773-1.2695-1.4644-2.1941-1.7813-2.2989-0.33253-0.1099-1.4555-0.44288-1.6141 0.19031-0.15869 0.63319-0.0596 3.6617 6e-3 4.2078 0.0884 0.73671-1.0633 0.49483-2.3952 0.4349-0.98241-0.04419-0.89527-0.62247-0.89527-5.9558zm15.335 0.0625s-0.3247-5.1772 0-6c0.19804-0.50186 6.6451-0.20992 6.6451-0.20992 5.2184 0 5.3549 1.4484 5.3549 4.7099 0 2.9997-0.21168 3.7132-3.9985 4.0249-0.498 0.04099-3.9633-0.27603-4.765 0.27525-0.6586 0.45291-0.12352 2.5073-0.32491 2.9815-0.17678 0.4162-1.4263 0.17418-2.2513 0.17418-1.1667 0-0.66031-1.2891-0.66031-5.9558zm8.5745-1.4669c-0.017-1.6183-0.70137-1.5663-3.0745-1.5331-1.5554 0.02172-2.8188-0.36177-2.8315 1.5-0.0103 1.5189 0.94506 1.4562 2.5 1.5 2.7488 0.07734 3.4217 0.02993 3.406-1.4669zm5.4034 6.6325c0-0.56828 1.1768-3.887 2.561-6.6187 3.3333-6.578 5.7499-6.6726 8.36-0.03137 1.745 4.4399 3.4869 7.4182 1.4849 7.4182-0.825 0-2.0303 0.16872-2.0303-0.38128 0-0.275-0.35294-2.1602-0.886-2.3414-0.53305-0.18125-1.6882-0.44843-2.4969-0.44843s-1.6135 0.1125-2.2586 0.29375c-0.64507 0.18125-1.3868 2.2766-1.6982 2.3635-0.83537 0.23314-3.036 0.47279-3.036-0.25421zm8.4972-4.729c0.28012-0.35775-1.0047-2.6557-1.7017-2.6557-0.67745 0.39112-1.5135 2.518-1.0661 2.7763 0.47631 0.275 2.538 0.17292 2.7678-0.12058zm9.5571 3.9763c-0.92759-0.92759-1.4484-2.8068-1.5233-4.6681-0.0749-1.8613 0.59404-3.7978 1.4498-4.6536 0.90778-0.90777 2.0455-1.1527 4.1912-1.2308 0.84887-0.03088 4.5723-0.24874 5.1304 0.41554 0.28474 0.33895 0.19909 1.9561 0.18046 2.773-5e-3 0.22651-1.0064 0.27069-3.3558 0.27069-1.912 0-3.2727-0.29316-3.5577 0.25011-0.45631 0.86991-1.1146 3.3944-0.13909 4.7285 0.92398 1.2636 4.5006 0.52698 6.4831 0.57525 0.85766 0.02088 0.72656 0.69232 0.66262 2.377-0.0186 0.49072-1.0454 0.77112-4.3197 0.77112-2.2381 0-4.3068-0.71344-5.202-1.6087zm12.749 0.72162c0-0.56828 1.1768-3.887 2.561-6.6187 3.3333-6.578 5.7499-6.6726 8.36-0.03137 1.745 4.4399 3.4869 7.4182 1.4849 7.4182-0.825 0-2.0303 0.16872-2.0303-0.38128 0-0.275-0.35294-2.1602-0.886-2.3414-0.53305-0.18125-1.6882-0.44843-2.4969-0.44843s-1.6135 0.1125-2.2586 0.29375c-0.64507 0.18125-1.3868 2.2766-1.6982 2.3635-0.83537 0.23314-3.036 0.47279-3.036-0.25421zm8.4972-4.7603c0.28012-0.35775-1.0047-2.6245-1.7017-2.6245-0.67745 0.39112-1.5135 2.4867-1.0661 2.7451 0.47631 0.275 2.538 0.17292 2.7678-0.12058z" fill="#fff"/>
  <path d="m35 77.5v-4.5h-9v-10h-9v-9h-9v-27h6v-15h23v15h14v-16h23v16h3.5c3.2222 0 3.5 0.2381 3.5 3v3h-18.852c-17.904 0-19.018 0.11314-22.158 2.25-4.4692 3.0417-6.9234 6.5659-7.6377 10.968-1.3182 8.1231 2.4139 15.404 9.3897 18.319 2.1819 0.91165 6.8497 1.4634 12.38 1.4634h8.8779v3.5c0 3.4167-0.09524 3.5-4 3.5h-4v9h-20zm41-57c0-3.3333 0.16667-3.5 3.5-3.5s3.5 0.16667 3.5 3.5-0.16667 3.5-3.5 3.5-3.5-0.16667-3.5-3.5zm8-9.5c0-2.6667 0.33333-3 3-3s3 0.33333 3 3c0 2.6667-0.33333 3-3 3s-3-0.33333-3-3z" fill="#f69ec8"/>
 </g>
</svg>
