<svg viewBox="0 0 79 76" xmlns="http://www.w3.org/2000/svg">
  <g transform="translate(-2.0171106,-21.767578)">
    <path fill="#ff5555" d="M74.674282,82.594285 60.678966,81.611253 55.107117,97.558686 44.362479,88.537156 30.481093,98.163849 27.091221,84.549739 10.202515,84.178623 15.462224,71.17206 2.0171106,60.944889 13.917371,53.513937 9.0514257,37.337142 l 13.9953163,0.983032 5.571849,-15.947433 10.744638,9.02153 13.881386,-9.626693 3.389872,13.61411 16.888706,0.371116 -5.259709,13.006563 13.445113,10.227171 -11.90026,7.430952 z" />
    <g
       transform="matrix(0.9739325,0,0,1.0267652,0.56571429,0)">
      <path
         fill="#ffffff" d="M33.52963,65.937688 q0,0.205457 -0.07191,0.349277 -0.06164,0.14382 -0.174639,0.236276 -0.102728,0.09246 -0.236275,0.133547 -0.133547,0.04109 -0.267094,0.04109 h-0.565007 q-0.267094,0 -0.472551,-0.05136 -0.195185,-0.06164 -0.380096,-0.205457 Q31.18742,66.286965 31.002508,66.030144 30.82787,65.773323 30.61214,65.372682 L26.420817,57.811863 Q26.092085,57.226311 25.753081,56.589394 25.42435,55.942204 25.13671,55.336106 h-0.02055 q0.02055,0.739645 0.03082,1.510109 0.01027,0.770464 0.01027,1.530655 v8.023097 q0,0.07191 -0.04109,0.14382 -0.04109,0.06164 -0.14382,0.102728 -0.09246,0.03082 -0.256822,0.05136 -0.154092,0.03082 -0.400641,0.03082 -0.246548,0 -0.410914,-0.03082 -0.154093,-0.02054 -0.246548,-0.05136 -0.09246,-0.04109 -0.133547,-0.102728 -0.04109,-0.07191 -0.04109,-0.14382 V 54.134182 q 0,-0.410914 0.226003,-0.585552 0.226003,-0.174639 0.493097,-0.174639 h 0.842374 q 0.297912,0 0.493096,0.05137 0.205458,0.05136 0.35955,0.174638 0.164366,0.113001 0.308186,0.328731 0.154093,0.205457 0.328731,0.523916 l 3.225675,5.834979 q 0.297913,0.534189 0.57528,1.047831 0.277367,0.50337 0.534188,0.996467 0.256822,0.493096 0.50337,0.975921 0.256821,0.472551 0.50337,0.955375 h 0.01027 q -0.02055,-0.811556 -0.03082,-1.684748 0,-0.883465 0,-1.69502 v -7.211542 q 0,-0.07191 0.04109,-0.133547 0.04109,-0.06164 0.133547,-0.102729 0.102729,-0.05136 0.256822,-0.07191 0.164365,-0.02055 0.421187,-0.02055 0.226002,0 0.390368,0.02055 0.164366,0.02054 0.256821,0.07191 0.09246,0.04109 0.133547,0.102729 0.04109,0.06164 0.04109,0.133547 z" />
      <path
         fill="#ffffff" d="M44.459944,65.937688 q0,0.184912 -0.02055,0.328732 -0.02055,0.133547 -0.07191,0.226002 -0.05136,0.09246 -0.123274,0.133547 -0.06164,0.04109 -0.14382,0.04109 h -6.379441 q -0.236275,0 -0.452005,-0.154093 -0.205457,-0.164366 -0.205457,-0.565007 v -11.85487 q 0,-0.400641 0.205457,-0.554734 0.21573,-0.164366 0.452005,-0.164366 h 6.307531 q 0.08218,0 0.14382,0.04109 0.07191,0.04109 0.113001,0.133547 0.04109,0.09246 0.06164,0.236275 0.03082,0.133547 0.03082,0.339005 0,0.184911 -0.03082,0.328731 -0.02054,0.133547 -0.06164,0.226002 -0.04109,0.08218 -0.113001,0.123275 -0.06164,0.04109 -0.14382,0.04109 h -5.198063 v 4.170778 h 4.458418 q 0.08218,0 0.143819,0.05136 0.07191,0.04109 0.113002,0.123274 0.05136,0.08218 0.07191,0.226003 0.02054,0.14382 0.02054,0.339004 0,0.184911 -0.02054,0.318458 -0.02055,0.133547 -0.07191,0.21573 -0.04109,0.08218 -0.113002,0.123274 -0.06164,0.03082 -0.143819,0.03082 h -4.458418 v 4.75633 h 5.269973 q 0.08218,0 0.14382,0.04109 0.07191,0.04109 0.123274,0.133547 0.05136,0.08218 0.07191,0.226002 0.02055,0.133547 0.02055,0.339004 z"/>
      <path
         fill="#ffffff" d="M60.064405,66.276693 q-0.04109,0.143819 -0.123274,0.236275 -0.08218,0.08218 -0.226003,0.133547 -0.14382,0.04109 -0.359549,0.06164 -0.205457,0.02055 -0.513643,0.02055 -0.318458,0 -0.544461,-0.02055 -0.21573,-0.02054 -0.35955,-0.06164 -0.14382,-0.05136 -0.21573,-0.133547 -0.07191,-0.09246 -0.113001,-0.236275 L 54.825251,56.240117 h -0.02055 l -2.568212,10.036576 q -0.03082,0.143819 -0.102729,0.236275 -0.07191,0.08218 -0.205457,0.133547 -0.133547,0.04109 -0.349277,0.06164 -0.205457,0.02055 -0.534188,0.02055 -0.339004,0 -0.565007,-0.02055 -0.226003,-0.02054 -0.369823,-0.06164 -0.143819,-0.05136 -0.226002,-0.133547 -0.07191,-0.09246 -0.102729,-0.236275 L 46.267966,54.000635 q -0.06164,-0.236275 -0.07191,-0.369822 0,-0.133547 0.08218,-0.205457 0.09246,-0.07191 0.28764,-0.09246 0.195184,-0.02055 0.523915,-0.02055 0.318459,0 0.50337,0.02055 0.184911,0.01027 0.277367,0.05136 0.102728,0.04109 0.133547,0.113002 0.04109,0.07191 0.06164,0.184911 l 2.9894,11.135771 h 0.01027 l 2.835307,-11.115225 q 0.03082,-0.113002 0.07191,-0.184912 0.05136,-0.08218 0.154092,-0.123274 0.102729,-0.04109 0.28764,-0.06164 0.195184,-0.02055 0.50337,-0.02055 0.28764,0 0.452005,0.02055 0.174639,0.02055 0.277367,0.06164 0.102729,0.04109 0.14382,0.123274 0.05136,0.07191 0.08218,0.184912 l 3.051037,11.115225 h 0.02055 l 2.927764,-11.12549 q 0.03082,-0.102729 0.06164,-0.174639 0.03082,-0.08218 0.123274,-0.123274 0.102729,-0.04109 0.277367,-0.06164 0.184912,-0.02055 0.482824,-0.02055 0.308186,0 0.482824,0.03082 0.184912,0.02055 0.267095,0.09246 0.08218,0.07191 0.07191,0.205458 0,0.133547 -0.05137,0.369822 z"/>
    </g>
  </g>
</svg>
